<svg xmlns:inkscape="http://www.inkscape.org/namespaces/inkscape" xmlns:sodipodi="http://sodipodi.sourceforge.net/DTD/sodipodi-0.dtd" xmlns="http://www.w3.org/2000/svg" xmlns:svg="http://www.w3.org/2000/svg" version="1.1" id="svg2" sodipodi:docname="mobile-legends-seeklogo.ai" viewBox="137.24 264.15 844.61 264.9">
  <defs id="defs6">
    <linearGradient x1="0" y1="0" x2="1" y2="0" gradientUnits="userSpaceOnUse" gradientTransform="matrix(182.33624,147.30614,147.30614,-182.33624,95.452843,206.84496)" spreadMethod="pad" id="linearGradient28">
      <stop style="stop-opacity:1;stop-color:#ba9258" offset="0" id="stop22"/>
      <stop style="stop-opacity:1;stop-color:#e4c482" offset="0.987437" id="stop24"/>
      <stop style="stop-opacity:1;stop-color:#e4c482" offset="1" id="stop26"/>
    </linearGradient>
    <linearGradient x1="0" y1="0" x2="1" y2="0" gradientUnits="userSpaceOnUse" gradientTransform="matrix(182.33624,147.30614,147.30614,-182.33624,90.701119,212.72667)" spreadMethod="pad" id="linearGradient50">
      <stop style="stop-opacity:1;stop-color:#ba9258" offset="0" id="stop44"/>
      <stop style="stop-opacity:1;stop-color:#e4c482" offset="0.987437" id="stop46"/>
      <stop style="stop-opacity:1;stop-color:#e4c482" offset="1" id="stop48"/>
    </linearGradient>
    <linearGradient x1="0" y1="0" x2="1" y2="0" gradientUnits="userSpaceOnUse" gradientTransform="matrix(182.33624,147.30614,147.30614,-182.33624,118.5363,178.27216)" spreadMethod="pad" id="linearGradient72">
      <stop style="stop-opacity:1;stop-color:#ba9258" offset="0" id="stop66"/>
      <stop style="stop-opacity:1;stop-color:#e4c482" offset="0.987437" id="stop68"/>
      <stop style="stop-opacity:1;stop-color:#e4c482" offset="1" id="stop70"/>
    </linearGradient>
    <linearGradient x1="0" y1="0" x2="1" y2="0" gradientUnits="userSpaceOnUse" gradientTransform="matrix(182.33624,147.30614,147.30614,-182.33624,175.88733,107.28276)" spreadMethod="pad" id="linearGradient94">
      <stop style="stop-opacity:1;stop-color:#ba9258" offset="0" id="stop88"/>
      <stop style="stop-opacity:1;stop-color:#e4c482" offset="0.987437" id="stop90"/>
      <stop style="stop-opacity:1;stop-color:#e4c482" offset="1" id="stop92"/>
    </linearGradient>
    <linearGradient x1="0" y1="0" x2="1" y2="0" gradientUnits="userSpaceOnUse" gradientTransform="matrix(182.33624,147.30614,147.30614,-182.33624,235.66045,33.2953)" spreadMethod="pad" id="linearGradient116">
      <stop style="stop-opacity:1;stop-color:#ba9258" offset="0" id="stop110"/>
      <stop style="stop-opacity:1;stop-color:#e4c482" offset="0.987437" id="stop112"/>
      <stop style="stop-opacity:1;stop-color:#e4c482" offset="1" id="stop114"/>
    </linearGradient>
    <linearGradient x1="0" y1="0" x2="1" y2="0" gradientUnits="userSpaceOnUse" gradientTransform="matrix(182.33624,147.30614,147.30614,-182.33624,151.6757,137.25203)" spreadMethod="pad" id="linearGradient138">
      <stop style="stop-opacity:1;stop-color:#ba9258" offset="0" id="stop132"/>
      <stop style="stop-opacity:1;stop-color:#e4c482" offset="0.987437" id="stop134"/>
      <stop style="stop-opacity:1;stop-color:#e4c482" offset="1" id="stop136"/>
    </linearGradient>
    <linearGradient x1="0" y1="0" x2="1" y2="0" gradientUnits="userSpaceOnUse" gradientTransform="matrix(182.33624,147.30614,147.30614,-182.33624,231.64441,38.266384)" spreadMethod="pad" id="linearGradient160">
      <stop style="stop-opacity:1;stop-color:#ba9258" offset="0" id="stop154"/>
      <stop style="stop-opacity:1;stop-color:#e4c482" offset="0.987437" id="stop156"/>
      <stop style="stop-opacity:1;stop-color:#e4c482" offset="1" id="stop158"/>
    </linearGradient>
    <linearGradient x1="0" y1="0" x2="1" y2="0" gradientUnits="userSpaceOnUse" gradientTransform="matrix(182.33624,147.30614,147.30614,-182.33624,180.83093,101.16354)" spreadMethod="pad" id="linearGradient182">
      <stop style="stop-opacity:1;stop-color:#ba9258" offset="0" id="stop176"/>
      <stop style="stop-opacity:1;stop-color:#e4c482" offset="0.987437" id="stop178"/>
      <stop style="stop-opacity:1;stop-color:#e4c482" offset="1" id="stop180"/>
    </linearGradient>
    <linearGradient x1="0" y1="0" x2="1" y2="0" gradientUnits="userSpaceOnUse" gradientTransform="matrix(182.33624,147.30614,147.30614,-182.33624,277.92438,-19.019192)" spreadMethod="pad" id="linearGradient204">
      <stop style="stop-opacity:1;stop-color:#ba9258" offset="0" id="stop198"/>
      <stop style="stop-opacity:1;stop-color:#e4c482" offset="0.987437" id="stop200"/>
      <stop style="stop-opacity:1;stop-color:#e4c482" offset="1" id="stop202"/>
    </linearGradient>
    <linearGradient x1="0" y1="0" x2="1" y2="0" gradientUnits="userSpaceOnUse" gradientTransform="matrix(182.33624,147.30614,147.30614,-182.33624,256.54715,7.441649)" spreadMethod="pad" id="linearGradient226">
      <stop style="stop-opacity:1;stop-color:#ba9258" offset="0" id="stop220"/>
      <stop style="stop-opacity:1;stop-color:#e4c482" offset="0.987437" id="stop222"/>
      <stop style="stop-opacity:1;stop-color:#e4c482" offset="1" id="stop224"/>
    </linearGradient>
    <linearGradient x1="0" y1="0" x2="1" y2="0" gradientUnits="userSpaceOnUse" gradientTransform="matrix(182.33624,147.30614,147.30614,-182.33624,210.68898,64.205109)" spreadMethod="pad" id="linearGradient248">
      <stop style="stop-opacity:1;stop-color:#ba9258" offset="0" id="stop242"/>
      <stop style="stop-opacity:1;stop-color:#e4c482" offset="0.987437" id="stop244"/>
      <stop style="stop-opacity:1;stop-color:#e4c482" offset="1" id="stop246"/>
    </linearGradient>
    <linearGradient x1="0" y1="0" x2="1" y2="0" gradientUnits="userSpaceOnUse" gradientTransform="matrix(182.33624,147.30614,147.30614,-182.33624,307.1676,-55.216595)" spreadMethod="pad" id="linearGradient270">
      <stop style="stop-opacity:1;stop-color:#ba9258" offset="0" id="stop264"/>
      <stop style="stop-opacity:1;stop-color:#e4c482" offset="0.987437" id="stop266"/>
      <stop style="stop-opacity:1;stop-color:#e4c482" offset="1" id="stop268"/>
    </linearGradient>
    <linearGradient x1="0" y1="0" x2="1" y2="0" gradientUnits="userSpaceOnUse" gradientTransform="matrix(182.33624,147.30614,147.30614,-182.33624,212.01659,62.561787)" spreadMethod="pad" id="linearGradient292">
      <stop style="stop-opacity:1;stop-color:#ba9258" offset="0" id="stop286"/>
      <stop style="stop-opacity:1;stop-color:#e4c482" offset="0.987437" id="stop288"/>
      <stop style="stop-opacity:1;stop-color:#e4c482" offset="1" id="stop290"/>
    </linearGradient>
    <linearGradient x1="0" y1="0" x2="1" y2="0" gradientUnits="userSpaceOnUse" gradientTransform="matrix(182.33624,147.30614,147.30614,-182.33624,157.87912,129.57341)" spreadMethod="pad" id="linearGradient314">
      <stop style="stop-opacity:1;stop-color:#ba9258" offset="0" id="stop308"/>
      <stop style="stop-opacity:1;stop-color:#e4c482" offset="0.987437" id="stop310"/>
      <stop style="stop-opacity:1;stop-color:#e4c482" offset="1" id="stop312"/>
    </linearGradient>
    <linearGradient x1="0" y1="0" x2="1" y2="0" gradientUnits="userSpaceOnUse" gradientTransform="matrix(182.33624,147.30614,147.30614,-182.33624,195.86528,82.553955)" spreadMethod="pad" id="linearGradient336">
      <stop style="stop-opacity:1;stop-color:#ba9258" offset="0" id="stop330"/>
      <stop style="stop-opacity:1;stop-color:#e4c482" offset="0.987437" id="stop332"/>
      <stop style="stop-opacity:1;stop-color:#e4c482" offset="1" id="stop334"/>
    </linearGradient>
    <linearGradient x1="0" y1="0" x2="1" y2="0" gradientUnits="userSpaceOnUse" gradientTransform="matrix(182.33624,147.30614,147.30614,-182.33624,101.64008,199.18637)" spreadMethod="pad" id="linearGradient358">
      <stop style="stop-opacity:1;stop-color:#ba9258" offset="0" id="stop352"/>
      <stop style="stop-opacity:1;stop-color:#e4c482" offset="0.987437" id="stop354"/>
      <stop style="stop-opacity:1;stop-color:#e4c482" offset="1" id="stop356"/>
    </linearGradient>
    <linearGradient x1="0" y1="0" x2="1" y2="0" gradientUnits="userSpaceOnUse" gradientTransform="matrix(182.33624,147.30614,147.30614,-182.33624,85.171654,219.5498)" spreadMethod="pad" id="linearGradient380">
      <stop style="stop-opacity:1;stop-color:#ba9258" offset="0" id="stop374"/>
      <stop style="stop-opacity:1;stop-color:#e4c482" offset="0.987437" id="stop376"/>
      <stop style="stop-opacity:1;stop-color:#e4c482" offset="1" id="stop378"/>
    </linearGradient>
    <linearGradient x1="0" y1="0" x2="1" y2="0" gradientUnits="userSpaceOnUse" gradientTransform="matrix(182.33624,147.30614,147.30614,-182.33624,180.32622,101.78828)" spreadMethod="pad" id="linearGradient402">
      <stop style="stop-opacity:1;stop-color:#ba9258" offset="0" id="stop396"/>
      <stop style="stop-opacity:1;stop-color:#e4c482" offset="0.987437" id="stop398"/>
      <stop style="stop-opacity:1;stop-color:#e4c482" offset="1" id="stop400"/>
    </linearGradient>
    <linearGradient x1="0" y1="0" x2="1" y2="0" gradientUnits="userSpaceOnUse" gradientTransform="matrix(182.33624,147.30614,147.30614,-182.33624,213.64165,60.550274)" spreadMethod="pad" id="linearGradient424">
      <stop style="stop-opacity:1;stop-color:#ba9258" offset="0" id="stop418"/>
      <stop style="stop-opacity:1;stop-color:#e4c482" offset="0.987437" id="stop420"/>
      <stop style="stop-opacity:1;stop-color:#e4c482" offset="1" id="stop422"/>
    </linearGradient>
    <linearGradient x1="0" y1="0" x2="1" y2="0" gradientUnits="userSpaceOnUse" gradientTransform="matrix(182.33624,147.30614,147.30614,-182.33624,229.79361,40.557301)" spreadMethod="pad" id="linearGradient446">
      <stop style="stop-opacity:1;stop-color:#ba9258" offset="0" id="stop440"/>
      <stop style="stop-opacity:1;stop-color:#e4c482" offset="0.987437" id="stop442"/>
      <stop style="stop-opacity:1;stop-color:#e4c482" offset="1" id="stop444"/>
    </linearGradient>
    <linearGradient x1="0" y1="0" x2="1" y2="0" gradientUnits="userSpaceOnUse" gradientTransform="matrix(182.33624,147.30614,147.30614,-182.33624,199.05489,78.605843)" spreadMethod="pad" id="linearGradient468">
      <stop style="stop-opacity:1;stop-color:#ba9258" offset="0" id="stop462"/>
      <stop style="stop-opacity:1;stop-color:#e4c482" offset="0.987437" id="stop464"/>
      <stop style="stop-opacity:1;stop-color:#e4c482" offset="1" id="stop466"/>
    </linearGradient>
    <linearGradient x1="0" y1="0" x2="1" y2="0" gradientUnits="userSpaceOnUse" gradientTransform="matrix(182.33624,147.30614,147.30614,-182.33624,151.65077,137.2829)" spreadMethod="pad" id="linearGradient490">
      <stop style="stop-opacity:1;stop-color:#ba9258" offset="0" id="stop484"/>
      <stop style="stop-opacity:1;stop-color:#e4c482" offset="0.987437" id="stop486"/>
      <stop style="stop-opacity:1;stop-color:#e4c482" offset="1" id="stop488"/>
    </linearGradient>
    <linearGradient x1="0" y1="0" x2="1" y2="0" gradientUnits="userSpaceOnUse" gradientTransform="matrix(182.33624,147.30614,147.30614,-182.33624,260.75363,2.2348289)" spreadMethod="pad" id="linearGradient512">
      <stop style="stop-opacity:1;stop-color:#ba9258" offset="0" id="stop506"/>
      <stop style="stop-opacity:1;stop-color:#e4c482" offset="0.987437" id="stop508"/>
      <stop style="stop-opacity:1;stop-color:#e4c482" offset="1" id="stop510"/>
    </linearGradient>
    <linearGradient x1="0" y1="0" x2="1" y2="0" gradientUnits="userSpaceOnUse" gradientTransform="matrix(182.33624,147.30614,147.30614,-182.33624,294.06906,-39.003178)" spreadMethod="pad" id="linearGradient534">
      <stop style="stop-opacity:1;stop-color:#ba9258" offset="0" id="stop528"/>
      <stop style="stop-opacity:1;stop-color:#e4c482" offset="0.987437" id="stop530"/>
      <stop style="stop-opacity:1;stop-color:#e4c482" offset="1" id="stop532"/>
    </linearGradient>
    <linearGradient x1="0" y1="0" x2="1" y2="0" gradientUnits="userSpaceOnUse" gradientTransform="matrix(182.33624,147.30614,147.30614,-182.33624,310.22104,-58.996155)" spreadMethod="pad" id="linearGradient556">
      <stop style="stop-opacity:1;stop-color:#ba9258" offset="0" id="stop550"/>
      <stop style="stop-opacity:1;stop-color:#e4c482" offset="0.987437" id="stop552"/>
      <stop style="stop-opacity:1;stop-color:#e4c482" offset="1" id="stop554"/>
    </linearGradient>
    <linearGradient x1="0" y1="0" x2="1" y2="0" gradientUnits="userSpaceOnUse" gradientTransform="matrix(182.33624,147.30614,147.30614,-182.33624,279.4823,-20.947613)" spreadMethod="pad" id="linearGradient578">
      <stop style="stop-opacity:1;stop-color:#ba9258" offset="0" id="stop572"/>
      <stop style="stop-opacity:1;stop-color:#e4c482" offset="0.987437" id="stop574"/>
      <stop style="stop-opacity:1;stop-color:#e4c482" offset="1" id="stop576"/>
    </linearGradient>
  </defs>
  <sodipodi:namedview id="namedview4" pagecolor="#ffffff" bordercolor="#000000" borderopacity="0.25" inkscape:showpageshadow="2" inkscape:pageopacity="0.0" inkscape:pagecheckerboard="0" inkscape:deskcolor="#d1d1d1"/>
  <g id="g8" inkscape:groupmode="layer" inkscape:label="mobile-legends-seeklogo" transform="matrix(1.3333333,0,0,-1.3333333,0,793.70133)">
    <g id="g10">
      <g id="g12">
        <g id="g18">
          <g id="g20">
            <path d="m 102.936,368.132 c 0,-1.29 -0.02,-2.581 0.002,-3.87 v 0 c 0.477,-27.25 0.873,-54.5 1.514,-81.746 v 0 c 0.125,-5.325 1.267,-10.538 4.035,-15.364 v 0 c 2.89,-5.041 7.051,-8.894 11.072,-12.855 v 0 c 11.149,-10.987 22.395,-21.88 33.788,-32.613 v 0 c 5.966,-5.622 12.277,-10.882 18.518,-16.205 v 0 c 3.414,-2.912 7.595,-4.64 11.856,-5.536 v 0 c 4.062,-0.853 8.354,-0.76 12.548,-0.815 v 0 c 16.736,-0.219 33.471,-0.367 50.208,-0.476 v 0 c 10.158,-0.065 20.317,-0.012 30.979,-0.012 v 0 c -1.207,1.175 -2.293,2.193 -3.337,3.255 v 0 c -5.901,5.997 -11.809,11.987 -17.682,18.012 v 0 c -6.568,6.737 -13.091,13.519 -19.659,20.255 v 0 c -1.219,1.251 -1.753,2.593 -1.766,4.406 v 0 c -0.158,20.976 -0.406,41.952 -0.639,62.929 v 0 c -0.008,0.691 -0.11,1.381 -0.213,2.602 v 0 c -0.917,-0.813 -1.452,-1.266 -1.964,-1.744 v 0 c -10.72,-10.037 -21.444,-20.073 -32.15,-30.127 v 0 c -0.866,-0.812 -1.655,-1.012 -2.579,-0.155 v 0 c -0.606,0.562 -1.264,1.069 -1.853,1.646 v 0 c -9.138,8.961 -18.262,17.935 -27.405,26.89 v 0 c -1.908,1.869 -3.879,3.674 -5.821,5.508 v 0 l -0.746,-0.335 c 0.005,-25.274 1.069,-50.544 1.102,-75.865 v 0 c -0.791,0.276 -1.268,0.579 -1.666,0.964 v 0 c -2.787,2.7 -5.579,5.395 -8.329,8.133 v 0 c -5.854,5.829 -11.704,11.661 -17.488,17.556 v 0 c -0.62,0.634 -1.091,1.692 -1.123,2.572 v 0 c -0.173,4.698 -0.187,9.399 -0.252,14.1 v 0 c -0.269,19.65 -0.558,39.3 -0.767,58.952 v 0 c -0.017,1.633 -0.493,2.79 -1.658,3.891 v 0 c -8.335,7.885 -16.627,15.817 -24.938,23.729 v 0 c -0.972,0.925 -1.979,1.814 -2.97,2.718 v 0 c -0.206,-0.133 -0.411,-0.266 -0.617,-0.4" style="fill:url(#linearGradient28);stroke:none" id="path30"/>
          </g>
        </g>
      </g>
    </g>
    <g id="g32">
      <g id="g34">
        <g id="g40">
          <g id="g42">
            <path d="m 207.26,390.282 c -26.968,-0.167 -53.936,-0.097 -80.905,-0.133 v 0 c -0.605,-10e-4 -1.21,-0.143 -2.326,-0.283 v 0 c 24.147,-25.125 48.99,-48.831 73.602,-72.63 v 0 c 12.445,12.284 24.732,24.412 37.063,36.584 v 0 c 0.601,-0.268 0.88,-0.312 1.041,-0.474 v 0 c 8.565,-8.593 17.134,-17.183 25.647,-25.827 v 0 c 0.576,-0.585 0.952,-1.571 1.028,-2.406 v 0 c 0.217,-2.379 0.292,-4.776 0.315,-7.167 v 0 c 0.203,-21.059 0.394,-42.119 0.548,-63.178 v 0 c 0.012,-1.627 0.31,-2.917 1.948,-3.633 v 0 c 0.516,-0.224 0.971,-0.636 1.384,-1.036 v 0 c 6.799,-6.57 13.573,-13.165 20.385,-19.721 v 0 c 1.67,-1.605 3.454,-3.091 5.46,-4.877 v 0 c 0,1.154 0.007,2.189 -10e-4,3.224 v 0 c -0.126,16.024 -0.219,32.048 -0.394,48.071 v 0 c -0.13,11.884 -0.283,23.77 -0.592,35.651 v 0 c -0.162,6.223 -2.986,11.414 -7.271,15.781 v 0 c -3.87,3.945 -7.934,7.699 -11.869,11.581 v 0 c -13.632,13.447 -27.241,26.919 -40.868,40.373 v 0 c -6.644,6.559 -14.45,10.101 -23.957,10.101 v 0 c -0.08,0 -0.158,0 -0.238,-0.001" style="fill:url(#linearGradient50);stroke:none" id="path52"/>
          </g>
        </g>
      </g>
    </g>
    <g id="g54">
      <g id="g56">
        <g id="g62">
          <g id="g64">
            <path d="m 305.194,396.855 c -0.11,-25.645 0.068,-51.287 0.378,-77.431 v 0 c 4.789,2.247 8.746,4.285 12.855,5.951 v 0 c 1.939,0.786 2.312,1.849 2.283,3.735 v 0 c -0.122,7.845 -0.098,15.693 -0.096,23.539 v 0 c 0,1.338 0.15,2.675 0.23,4.014 v 0 l 0.719,0.285 c 6.754,-7.783 13.509,-15.567 20.36,-23.463 v 0 c 7.291,7.837 13.368,16.299 20.665,23.736 v 0 c 0.324,-0.645 0.399,-1.114 0.401,-1.582 v 0 c 0.04,-9.165 0.047,-18.33 0.151,-27.494 v 0 c 0.009,-0.777 0.448,-1.969 1.035,-2.253 v 0 c 4.351,-2.107 8.79,-4.032 13.421,-6.115 v 0 77.146 l -0.736,0.175 c -11.951,-13.524 -22.896,-27.921 -35.098,-41.51 v 0 c -12.15,14.126 -23.954,27.851 -35.759,41.576 v 0 z" style="fill:url(#linearGradient72);stroke:none" id="path74"/>
          </g>
        </g>
      </g>
    </g>
    <g id="g76">
      <g id="g78">
        <g id="g84">
          <g id="g86">
            <path d="m 468.095,391.156 c -2.266,-0.002 -4.533,-0.216 -7.131,-0.35 v 0 c 0.517,-1.275 0.764,-2.228 1.257,-3.029 v 0 c 1.676,-2.719 2.074,-5.665 1.943,-8.787 v 0 c -0.151,-3.627 -0.204,-7.261 -0.201,-10.891 v 0 c 0.01,-12.379 -0.061,-24.76 0.178,-37.135 v 0 c 0.069,-3.649 -0.889,-6.78 -2.601,-9.839 v 0 c -0.268,-0.477 -0.49,-0.979 -0.932,-1.868 v 0 c 1.087,-0.211 1.895,-0.498 2.704,-0.504 v 0 c 10.005,-0.071 20.012,-0.034 30.017,-0.171 v 0 c 4.75,-0.066 9.191,0.958 13.297,3.242 v 0 c 5.719,3.18 9.856,7.742 11.342,14.275 v 0 c 1.195,5.253 0.474,10.343 -2.017,15.113 v 0 c -1.398,2.676 -3.027,5.23 -4.609,7.938 v 0 c 2.226,3.325 3.959,8.513 3.972,11.679 v 0 c 0.044,11.915 -10.152,19.599 -20.433,20.161 v 0 c -3.898,0.213 -7.805,0.274 -11.715,0.274 v 0 c -5.023,0 -10.049,-0.101 -15.071,-0.108 m 11.48,-26.665 v 13.627 c 5.232,0 10.259,0.211 15.257,-0.077 v 0 c 3.188,-0.184 5.238,-2.977 5.266,-6.18 v 0 c 0.032,-3.668 -2.276,-7.044 -5.702,-7.284 v 0 c -1.937,-0.136 -3.881,-0.176 -5.846,-0.176 v 0 c -2.933,0 -5.91,0.09 -8.975,0.09 m 0.939,-32.584 c -0.307,0.002 -0.613,0.161 -0.975,0.262 v 0 18.754 c 5.631,0 11.004,0.388 16.286,-0.134 v 0 c 3.683,-0.363 6.466,-2.904 7.36,-6.745 v 0 c 0.866,-3.721 0.522,-7.387 -2.734,-9.87 v 0 c -1.547,-1.179 -3.672,-2.079 -5.591,-2.2 v 0 c -1.94,-0.124 -3.886,-0.162 -5.834,-0.162 v 0 c -2.835,0 -5.675,0.081 -8.512,0.095" style="fill:url(#linearGradient94);stroke:none" id="path96"/>
          </g>
        </g>
      </g>
    </g>
    <g id="g98">
      <g id="g100">
        <g id="g106">
          <g id="g108">
            <path d="m 660.763,391.467 c -17.699,-0.028 -35.397,-0.015 -53.095,-0.042 v 0 c -0.73,-0.002 -1.457,-0.305 -2.424,-0.521 v 0 c 0.573,-1.344 1.082,-2.284 1.378,-3.287 v 0 c 0.525,-1.778 1.321,-3.596 1.313,-5.395 v 0 c -0.071,-18.001 -0.263,-36.002 -0.499,-54.001 v 0 c -0.018,-1.424 -0.488,-2.887 -0.985,-4.245 v 0 c -0.605,-1.652 -1.462,-3.212 -2.371,-5.156 v 0 h 58.072 c -0.069,6.14 0.873,12.078 0.013,18.344 v 0 c -1.25,-0.556 -1.971,-0.963 -2.744,-1.204 v 0 c -2.031,-0.633 -4.077,-1.668 -6.132,-1.704 v 0 c -9.254,-0.162 -18.515,-0.037 -27.773,0.004 v 0 c -0.881,0.004 -1.761,0.149 -2.47,0.213 v 0 13.211 h 28.674 v 15.287 h -28.293 v 13.261 c 0.634,0.102 0.955,0.197 1.277,0.198 v 0 c 9.755,0.077 19.511,0.186 29.267,0.159 v 0 c 1.248,-0.004 2.53,-0.637 3.733,-1.132 v 0 c 1.625,-0.669 3.188,-1.486 5.24,-2.458 v 0 c 0.132,5.84 0.288,11.182 0.358,16.526 v 0 c 0.021,1.629 -1.098,1.942 -2.527,1.942 v 0 c -0.004,0 -0.008,0 -0.012,0" style="fill:url(#linearGradient116);stroke:none" id="path118"/>
          </g>
        </g>
      </g>
    </g>
    <g id="g120">
      <g id="g122">
        <g id="g128">
          <g id="g130">
            <path d="m 384.723,355.247 c -0.513,-19.489 16.226,-36.249 35.357,-36.498 v 0 c 22.068,-0.286 37.017,16.535 37.496,35.23 v 0 c 0.553,21.591 -16.482,36.887 -35.697,37.246 v 0 c -0.236,0.005 -0.473,0.007 -0.708,0.007 v 0 c -20.572,10e-4 -36.741,-16.824 -36.448,-35.985 m 15.125,-0.651 c -0.059,12.719 10.225,22.061 22.294,21.607 v 0 c 11.288,-0.427 20.238,-9.762 20.196,-21.647 v 0 c -0.04,-11.307 -10.334,-21.37 -21.406,-20.769 v 0 c -0.125,-0.003 -0.251,-0.004 -0.376,-0.004 v 0 c -11.53,-0.001 -20.658,10.092 -20.708,20.813" style="fill:url(#linearGradient138);stroke:none" id="path140"/>
          </g>
        </g>
      </g>
    </g>
    <g id="g142">
      <g id="g144">
        <g id="g150">
          <g id="g152">
            <path d="m 489.692,304.828 c 0.388,-0.905 0.574,-1.523 0.897,-2.056 v 0 c 1.771,-2.926 2.149,-6.084 2.127,-9.469 v 0 c -0.104,-15.532 -0.092,-31.066 -0.003,-46.596 v 0 c 0.022,-3.769 -0.001,-7.417 -2.401,-10.602 v 0 c -0.324,-0.429 -0.42,-1.031 -0.614,-1.536 v 0 c 1.807,-1.028 51.412,-1.212 56.561,-0.221 v 0 c 0.524,5.491 0.892,11.034 0.32,17.034 v 0 c -1.615,-0.702 -2.621,-1.31 -3.712,-1.58 v 0 c -2.292,-0.565 -4.62,-1.308 -6.945,-1.352 v 0 c -8.518,-0.157 -17.043,-0.059 -25.564,-0.057 v 0 h -2.992 v 13.421 h 28.443 v 15.212 h -28.215 v 13.603 h 2.834 c 8.852,0.003 17.705,0.081 26.556,-0.051 v 0 c 1.819,-0.026 3.667,-0.706 5.424,-1.309 v 0 c 1.419,-0.487 2.722,-1.31 4.55,-2.22 v 0 17.779 z" style="fill:url(#linearGradient160);stroke:none" id="path162"/>
          </g>
        </g>
      </g>
    </g>
    <g id="g164">
      <g id="g166">
        <g id="g172">
          <g id="g174">
            <path d="m 360.388,304.665 c 0.321,-0.851 0.531,-1.368 0.712,-1.894 v 0 c 0.764,-2.23 2.141,-4.454 2.179,-6.699 v 0 c 0.295,-17.422 0.332,-34.848 0.448,-52.273 v 0 c 0.017,-2.583 -0.313,-5.058 -1.848,-7.27 v 0 c -0.47,-0.679 -0.641,-1.567 -1.053,-2.627 v 0 h 56.648 v 17.231 c -1.969,-0.811 -3.597,-1.553 -5.278,-2.148 v 0 c -1.063,-0.376 -2.203,-0.747 -3.311,-0.753 v 0 c -9.346,-0.049 -18.694,-0.016 -28.041,0.003 v 0 c -0.794,10e-4 -1.588,0.074 -2.469,0.118 v 0 13.439 h 28.223 v 15.092 h -28.211 v 13.527 c 0.473,0.08 0.786,0.179 1.099,0.18 v 0 c 9.926,0.012 19.852,0.029 29.778,-0.012 v 0 c 0.777,-0.002 1.591,-0.324 2.317,-0.651 v 0 c 1.898,-0.857 3.757,-1.799 5.902,-2.84 v 0 17.577 z" style="fill:url(#linearGradient182);stroke:none" id="path184"/>
          </g>
        </g>
      </g>
    </g>
    <g id="g186">
      <g id="g188">
        <g id="g194">
          <g id="g196">
            <path d="m 624.772,305.102 c -1.727,-10e-4 -3.454,-10e-4 -5.181,0 v 0 c -1.428,0 -2.856,-0.147 -4.601,-0.242 v 0 c 0.482,-1.1 0.7,-1.805 1.074,-2.413 v 0 c 1.737,-2.824 2.318,-5.828 2.254,-9.174 v 0 c -0.323,-16.929 -0.434,-33.862 -0.72,-50.79 v 0 c -0.023,-1.392 -0.711,-2.804 -1.242,-4.147 v 0 c -0.543,-1.378 -1.27,-2.682 -1.953,-4.093 v 0 c 9.629,0 18.778,-0.05 27.928,0.03 v 0 c 2.708,0.023 5.466,0.145 8.11,0.68 v 0 c 8.406,1.701 15.185,6.305 19.723,13.385 v 0 c 4.706,7.343 5.722,15.861 5.457,24.503 v 0 c -0.211,6.901 -1.715,13.384 -5.913,19.039 v 0 c -6.175,8.318 -14.324,12.986 -24.804,13.134 v 0 c -5.587,0.078 -11.174,0.089 -16.761,0.089 v 0 c -1.124,0 -2.247,-0.001 -3.371,-0.001 m 8.102,-14.632 c 5.465,0 10.512,0.679 15.293,-0.16 v 0 c 7.038,-1.234 10.544,-6.736 12.009,-13.255 v 0 c 1.255,-5.585 1.021,-11.302 -0.738,-16.851 v 0 c -2.249,-7.096 -8.191,-12.22 -16.025,-11.795 v 0 c -3.518,0.19 -7.056,0.032 -10.539,0.032 v 0 z" style="fill:url(#linearGradient204);stroke:none" id="path206"/>
          </g>
        </g>
      </g>
    </g>
    <g id="g208">
      <g id="g210">
        <g id="g216">
          <g id="g218">
            <path d="m 590.039,304.792 c 0.445,-0.945 0.682,-1.53 0.985,-2.081 v 0 c 1.559,-2.85 2.584,-5.753 2.457,-9.142 v 0 c -0.234,-6.186 -0.092,-12.387 -0.143,-18.581 v 0 c -0.014,-1.689 -0.158,-3.376 -0.275,-5.703 v 0 c -13.414,11.459 -25.415,23.67 -38.611,34.672 v 0 c -0.379,-1.148 -0.484,-2.105 -0.489,-3.061 v 0 c -0.094,-17.591 -0.13,-35.184 -0.293,-52.775 v 0 c -0.04,-4.313 0.197,-8.765 -2.659,-12.528 v 0 c -0.22,-0.29 -0.24,-0.731 -0.435,-1.378 v 0 h 20.677 c -0.522,1.148 -0.77,1.943 -1.207,2.615 v 0 c -1.696,2.6 -2.117,5.424 -1.997,8.486 v 0 c 0.251,6.268 0.276,12.545 0.439,18.816 v 0 c 0.038,1.519 0.253,3.034 0.386,4.549 v 0 c 0.191,0.093 0.38,0.186 0.57,0.278 v 0 c 12.35,-11.479 24.699,-22.958 37.048,-34.436 v 0 c 0.231,0.117 0.464,0.235 0.696,0.352 v 0 c 0.128,0.841 0.363,1.681 0.372,2.525 v 0 c 0.212,19.075 0.362,38.151 0.642,57.227 v 0 c 0.029,1.894 0.73,3.808 1.295,5.658 v 0 c 0.44,1.443 1.156,2.802 1.88,4.507 v 0 z" style="fill:url(#linearGradient226);stroke:none" id="path228"/>
          </g>
        </g>
      </g>
    </g>
    <g id="g230">
      <g id="g232">
        <g id="g238">
          <g id="g240">
            <path d="m 448.581,304.013 c -16.157,-3.362 -29.84,-20.932 -27.574,-37.444 v 0 c 1.659,-12.097 7.02,-21.648 17.891,-27.642 v 0 c 2.859,-1.577 5.943,-2.915 9.086,-3.766 v 0 c 3.064,-0.831 6.345,-1.285 9.514,-1.211 v 0 c 5.736,0.135 11.133,2.032 16.472,4.052 v 0 c 1.012,0.385 2.431,0.319 3.457,-0.073 v 0 c 2.662,-1.017 5.211,-2.33 8.191,-3.704 v 0 34.699 h -17.046 c 0,-0.473 -0.064,-0.677 0.01,-0.787 v 0 c 2.748,-4.082 3.031,-8.654 2.474,-13.315 v 0 c -0.127,-1.065 -0.814,-2.444 -1.678,-2.982 v 0 c -7.586,-4.724 -15.344,-5.545 -23.311,-0.744 v 0 c -10.047,6.053 -12.45,16.128 -9.268,25.685 v 0 c 4.128,12.403 18.98,17.342 29.454,11.728 v 0 c 2.865,-1.535 5.442,-3.607 8.341,-5.561 v 0 c 3.439,2.669 6.996,5.43 10.448,8.108 v 0 c -0.14,0.501 -0.137,0.694 -0.233,0.807 v 0 c -7.529,8.879 -16.72,13.122 -27.204,13.122 v 0 c -2.912,10e-4 -5.921,-0.326 -9.024,-0.972" style="fill:url(#linearGradient248);stroke:none" id="path250"/>
          </g>
        </g>
      </g>
    </g>
    <g id="g252">
      <g id="g254">
        <g id="g260">
          <g id="g262">
            <path d="m 696.509,303.474 c -6.25,-1.872 -11.231,-5.405 -12.91,-12.1 v 0 c -0.688,-2.741 -0.963,-5.674 -0.875,-8.503 v 0 c 0.152,-4.954 2.226,-9.241 6.375,-12.03 v 0 c 3.265,-2.196 6.817,-4.078 10.459,-5.573 v 0 c 5.552,-2.278 11.352,-3.954 16.917,-6.206 v 0 c 1.699,-0.686 3.484,-2.151 4.333,-3.737 v 0 c 1.835,-3.429 -0.968,-6.983 -5.565,-7.483 v 0 c -9.176,-0.996 -17.847,0.913 -26.201,4.584 v 0 c -2.136,0.937 -4.243,1.94 -6.386,2.923 v 0 c -0.917,-2.699 -0.834,-19.917 0.065,-21.285 v 0 c 2.292,1.249 4.599,2.505 6.94,3.779 v 0 c 6.542,-2.05 13.158,-3.62 20.079,-3.728 v 0 c 5.768,-0.09 11.335,0.359 16.552,3.2 v 0 c 8.286,4.511 12.252,13.546 8.904,22.945 v 0 c -1.986,5.574 -6.068,9.258 -11.193,11.652 v 0 c -4.539,2.12 -9.395,3.553 -14.074,5.381 v 0 c -3.066,1.197 -6.115,2.466 -9.088,3.874 v 0 c -2.435,1.155 -3.401,3.401 -3.194,5.942 v 0 c 0.197,2.418 2.216,3.349 4.253,3.953 v 0 c 1.33,0.395 2.728,0.675 4.11,0.762 v 0 c 6.05,0.381 11.84,-0.83 17.369,-3.222 v 0 c 3.222,-1.393 6.355,-2.989 9.527,-4.494 v 0 c 1.053,1.888 1.258,18.665 0.203,20.649 v 0 c -0.435,-0.148 -0.963,-0.2 -1.328,-0.471 v 0 c -3.734,-2.783 -7.565,-2.576 -11.883,-1.2 v 0 c -4.105,1.308 -8.277,1.996 -12.462,1.996 v 0 c -3.643,0 -7.296,-0.521 -10.927,-1.608" style="fill:url(#linearGradient270);stroke:none" id="path272"/>
          </g>
        </g>
      </g>
    </g>
    <g id="g274">
      <g id="g276">
        <g id="g282">
          <g id="g284">
            <path d="m 547.354,390.914 c 0.666,-1.362 1.05,-2.324 1.579,-3.199 v 0 c 1.36,-2.25 1.901,-4.61 1.87,-7.283 v 0 c -0.229,-19.552 -0.339,-39.104 -0.469,-58.657 v 0 c -0.006,-0.951 0.158,-1.902 0.245,-2.882 v 0 c 0.724,-0.127 1.199,-0.285 1.676,-0.285 v 0 c 15.542,-0.013 31.084,0 46.627,-0.026 v 0 c 1.7,-0.004 2.386,0.74 2.385,2.383 v 0 c -0.004,4.787 0.05,9.573 0.035,14.361 v 0 c -0.002,0.51 -0.312,1.018 -0.53,1.683 v 0 c -0.708,-0.372 -1.185,-0.683 -1.705,-0.886 v 0 c -2.049,-0.805 -4.093,-2.187 -6.173,-2.251 v 0 c -8.093,-0.248 -16.2,-0.078 -24.3,-0.052 v 0 c -0.887,0.003 -1.774,0.076 -2.973,0.13 v 0 c 0,1.011 -0.003,1.814 0,2.616 v 0 c 0.047,14.447 0.032,28.894 0.208,43.339 v 0 c 0.028,2.31 0.86,4.624 1.443,6.905 v 0 c 0.335,1.312 0.913,2.562 1.48,4.104 v 0 z" style="fill:url(#linearGradient292);stroke:none" id="path294"/>
          </g>
        </g>
      </g>
    </g>
    <g id="g296">
      <g id="g298">
        <g id="g304">
          <g id="g306">
            <path d="m 319.565,311.274 c -4.046,-1.853 -8.074,-3.744 -12.125,-5.585 v 0 c -1.319,-0.6 -1.682,-1.548 -1.67,-2.957 v 0 c 0.202,-22.288 0.352,-44.577 0.533,-66.865 v 0 c 0.006,-0.627 0.224,-1.252 0.352,-1.922 v 0 c 0.733,-0.075 1.299,-0.18 1.864,-0.181 v 0 c 9.923,-0.022 19.846,-0.039 29.769,-0.042 v 0 c 5.043,-0.001 10.088,0.028 15.131,0.049 v 0 c 2.907,0.013 3.02,0.142 3.017,3.124 v 0 c -0.004,3.138 0.004,6.275 0.007,9.413 v 0 c 0.001,1.458 0,2.915 0,4.823 v 0 c -1.228,-0.404 -2.097,-0.551 -2.823,-0.953 v 0 c -2.94,-1.627 -5.959,-2.534 -9.422,-2.429 v 0 c -6.692,0.205 -13.394,0.058 -20.092,0.057 v 0 h -3.254 v 63.48 c -0.519,0 -0.819,0.031 -1.019,0.031 v 0 c -0.115,0 -0.197,-0.01 -0.268,-0.043" style="fill:url(#linearGradient314);stroke:none" id="path316"/>
          </g>
        </g>
      </g>
    </g>
    <g id="g318">
      <g id="g320">
        <g id="g326">
          <g id="g328">
            <path d="m 522.078,390.847 c 0.726,-1.413 1.263,-2.251 1.601,-3.163 v 0 c 0.649,-1.744 1.683,-3.529 1.689,-5.3 v 0 c 0.063,-17.844 -0.012,-35.689 -0.175,-53.533 v 0 c -0.016,-1.815 -0.738,-3.667 -1.357,-5.423 v 0 c -0.502,-1.419 -1.343,-2.718 -2.033,-4.071 v 0 c 0.094,-0.236 0.189,-0.473 0.284,-0.709 v 0 c 6.981,-0.117 13.962,-0.113 21.4,-0.009 v 0 c -0.521,1.224 -0.688,1.954 -1.091,2.517 v 0 c -1.917,2.676 -2.361,5.634 -2.334,8.878 v 0 c 0.133,15.696 0.192,31.395 0.095,47.091 v 0 c -0.028,4.339 0.551,8.363 3.03,12.002 v 0 c 0.264,0.387 0.363,0.883 0.694,1.72 v 0 z" style="fill:url(#linearGradient336);stroke:none" id="path338"/>
          </g>
        </g>
      </g>
    </g>
    <g id="g340">
      <g id="g342">
        <g id="g348">
          <g id="g350">
            <path d="m 105.185,241.486 c 0.396,-13.993 0.792,-27.986 1.198,-42.32 v 0 c 0.999,-0.173 2.006,-0.497 3.015,-0.5 v 0 c 11.234,-0.038 22.469,-0.028 33.704,-0.018 v 0 c 0.654,0 1.308,0.157 1.962,0.146 v 0 c 1.092,-0.019 2.183,-0.11 3.274,-0.18 v 0 c 0.418,-0.027 0.833,-0.084 1.249,-0.128 v 0 c 0.082,0.15 0.165,0.301 0.247,0.451 v 0 c -14.685,14.303 -29.369,28.605 -44.052,42.908 v 0 c -0.2,-0.119 -0.398,-0.24 -0.597,-0.359" style="fill:url(#linearGradient358);stroke:none" id="path360"/>
          </g>
        </g>
      </g>
    </g>
    <g id="g362">
      <g id="g364">
        <g id="g370">
          <g id="g372">
            <path d="m 248.953,390.168 c -0.155,-0.267 -0.312,-0.534 -0.467,-0.8 v 0 c 14.12,-13.927 28.241,-27.852 42.461,-41.878 v 0 c 0.867,2.713 0.606,41.124 -0.179,42.678 v 0 z" style="fill:url(#linearGradient380);stroke:none" id="path382"/>
          </g>
        </g>
      </g>
    </g>
    <g id="g384">
      <g id="g386">
        <g id="g392">
          <g id="g394">
            <path d="m 306.686,222.976 v -24.283 c 5.36,0 10.312,-0.176 15.24,0.079 v 0 c 2.248,0.117 4.279,1.128 5.473,3.517 v 0 c 1.53,3.06 0.651,6.388 -2.185,8.947 v 0 c 0.275,0.508 0.536,1.086 0.879,1.611 v 0 c 2.432,3.729 1.407,7.417 -2.713,9.025 v 0 c -1.636,0.639 -3.468,0.983 -5.227,1.056 v 0 c -1.578,0.065 -3.158,0.084 -4.75,0.084 v 0 c -2.208,0 -4.438,-0.036 -6.717,-0.036 m 6.789,-9.315 v 4.155 c 1.524,0 3.076,0.213 4.515,-0.094 v 0 c 0.671,-0.143 1.575,-1.307 1.556,-1.986 v 0 c -0.019,-0.705 -0.919,-1.811 -1.621,-1.982 v 0 c -0.538,-0.133 -1.1,-0.172 -1.693,-0.172 v 0 c -0.845,0 -1.755,0.079 -2.757,0.079 m 0.098,-5.556 c 1.779,0 3.42,0.177 4.988,-0.086 v 0 c 0.632,-0.106 1.413,-1.116 1.546,-1.823 v 0 c 0.099,-0.537 -0.622,-1.68 -1.148,-1.797 v 0 c -1.684,-0.376 -3.447,-0.401 -5.386,-0.581 v 0 z" style="fill:url(#linearGradient402);stroke:none" id="path404"/>
          </g>
        </g>
      </g>
    </g>
    <g id="g406">
      <g id="g408">
        <g id="g414">
          <g id="g416">
            <path d="m 388.967,223.044 v -24.213 h 6.653 v 10.472 c 0.278,0.117 0.556,0.236 0.834,0.354 v 0 c 0.598,-0.706 1.261,-1.367 1.782,-2.126 v 0 c 1.68,-2.452 3.258,-4.973 4.987,-7.389 v 0 c 0.467,-0.652 1.286,-1.354 2.023,-1.454 v 0 c 1.607,-0.22 3.266,-0.067 5.11,-0.067 v 0 24.271 h -6.711 v -9.5 c -0.273,-0.063 -0.545,-0.127 -0.818,-0.19 v 0 c -0.667,0.782 -1.392,1.521 -1.991,2.353 v 0 c -1.496,2.072 -2.896,4.216 -4.422,6.266 v 0 c -0.396,0.532 -1.094,1.119 -1.696,1.167 v 0 c -0.822,0.068 -1.649,0.086 -2.487,0.086 v 0 c -1.063,0 -2.145,-0.03 -3.264,-0.03" style="fill:url(#linearGradient424);stroke:none" id="path426"/>
          </g>
        </g>
      </g>
    </g>
    <g id="g428">
      <g id="g430">
        <g id="g436">
          <g id="g438">
            <path d="m 439.299,223.007 c -4.531,-0.29 -8.385,-1.99 -10.121,-6.335 v 0 c -1.836,-4.587 -1.43,-9.246 1.651,-13.35 v 0 c 2.299,-3.059 5.777,-4.047 9.309,-4.573 v 0 c 7.133,-1.063 14.037,4.636 12.872,12 v 0 c -3.453,1.178 -10.571,1.023 -12.588,-0.393 v 0 c 0.112,-0.927 0.235,-1.955 0.364,-3.024 v 0 c 1.452,-0.174 2.69,-0.319 4.099,-0.487 v 0 c -2.256,-3.1 -5.717,-2.974 -7.079,0.083 v 0 c -1.17,2.625 -1.338,5.398 -0.294,8.187 v 0 c 0.666,1.776 1.962,2.865 3.726,2.644 v 0 c 1.215,-0.154 2.354,-1.136 3.456,-1.856 v 0 c 0.586,-0.382 0.987,-1.387 1.527,-1.43 v 0 c 2.092,-0.172 4.208,-0.071 6.27,-0.071 v 0 c 0.326,3.408 -1.559,6.233 -4.452,7.515 v 0 c -2.07,0.915 -4.185,1.177 -6.339,1.177 v 0 c -0.795,0 -1.596,-0.036 -2.401,-0.087" style="fill:url(#linearGradient446);stroke:none" id="path448"/>
          </g>
        </g>
      </g>
    </g>
    <g id="g450">
      <g id="g452">
        <g id="g458">
          <g id="g460">
            <path d="m 353.917,222.798 c -1.423,-4.111 -2.868,-8.036 -4.137,-12.016 v 0 c -1.243,-3.906 -2.869,-7.727 -3.505,-11.949 v 0 h 6.039 c 0.628,1.55 1.207,2.981 1.755,4.335 v 0 h 7.204 c 0.352,-1.046 0.504,-1.986 0.969,-2.73 v 0 c 0.437,-0.698 1.164,-1.624 1.839,-1.691 v 0 c 2.178,-0.215 4.392,-0.08 7.206,-0.08 v 0 c -2.907,8.386 -5.654,16.312 -8.365,24.131 v 0 z m 3.172,-9.26 c 0.212,0.042 0.425,0.082 0.638,0.124 v 0 c 0.509,-1.336 1.019,-2.672 1.646,-4.314 v 0 h -3.474 c 0.424,1.495 0.807,2.843 1.19,4.19" style="fill:url(#linearGradient468);stroke:none" id="path470"/>
          </g>
        </g>
      </g>
    </g>
    <g id="g472">
      <g id="g474">
        <g id="g480">
          <g id="g482">
            <path d="m 412.576,355.881 c -0.34,-0.415 -0.398,-1.549 -0.08,-1.935 v 0 c 2.659,-3.23 5.436,-6.362 8.302,-9.667 v 0 c 0.536,0.237 0.922,0.29 1.108,0.51 v 0 c 2.547,3.015 5.124,6.009 7.532,9.133 v 0 c 0.363,0.472 0.2,1.797 -0.218,2.346 v 0 c -2.145,2.807 -4.436,5.504 -6.721,8.201 v 0 c -0.384,0.452 -0.992,0.714 -1.626,1.153 v 0 c -2.886,-3.359 -5.647,-6.504 -8.297,-9.741" style="fill:url(#linearGradient490);stroke:none" id="path492"/>
          </g>
        </g>
      </g>
    </g>
    <g id="g494">
      <g id="g496">
        <g id="g502">
          <g id="g504">
            <path d="m 510.34,222.976 v -24.283 c 5.361,0 10.314,-0.176 15.242,0.079 v 0 c 2.247,0.117 4.278,1.128 5.473,3.517 v 0 c 1.53,3.06 0.65,6.388 -2.186,8.947 v 0 c 0.274,0.508 0.537,1.086 0.88,1.611 v 0 c 2.431,3.729 1.407,7.417 -2.714,9.025 v 0 c -1.636,0.639 -3.467,0.983 -5.228,1.056 v 0 c -1.577,0.065 -3.157,0.084 -4.748,0.084 v 0 c -2.208,0 -4.439,-0.036 -6.719,-0.036 m 6.791,-9.315 v 4.155 c 1.524,0 3.074,0.213 4.513,-0.094 v 0 c 0.673,-0.143 1.575,-1.307 1.557,-1.986 v 0 c -0.018,-0.705 -0.918,-1.811 -1.621,-1.982 v 0 c -0.538,-0.133 -1.1,-0.172 -1.694,-0.172 v 0 c -0.845,0 -1.754,0.079 -2.755,0.079 m 0.097,-5.556 c 1.779,0 3.42,0.177 4.988,-0.086 v 0 c 0.633,-0.106 1.414,-1.116 1.545,-1.823 v 0 c 0.101,-0.537 -0.622,-1.68 -1.147,-1.797 v 0 c -1.684,-0.376 -3.447,-0.401 -5.386,-0.581 v 0 z" style="fill:url(#linearGradient512);stroke:none" id="path514"/>
          </g>
        </g>
      </g>
    </g>
    <g id="g516">
      <g id="g518">
        <g id="g524">
          <g id="g526">
            <path d="m 592.623,223.044 v -24.213 h 6.653 v 10.472 c 0.278,0.117 0.556,0.236 0.834,0.354 v 0 c 0.597,-0.706 1.26,-1.367 1.78,-2.126 v 0 c 1.681,-2.452 3.259,-4.973 4.989,-7.389 v 0 c 0.467,-0.652 1.286,-1.354 2.022,-1.454 v 0 c 1.608,-0.22 3.266,-0.067 5.11,-0.067 v 0 24.271 H 607.3 v -9.5 c -0.273,-0.063 -0.545,-0.127 -0.817,-0.19 v 0 c -0.668,0.782 -1.393,1.521 -1.992,2.353 v 0 c -1.496,2.072 -2.895,4.216 -4.421,6.266 v 0 c -0.397,0.532 -1.096,1.119 -1.696,1.167 v 0 c -0.822,0.068 -1.649,0.086 -2.488,0.086 v 0 c -1.063,0 -2.145,-0.03 -3.263,-0.03" style="fill:url(#linearGradient534);stroke:none" id="path536"/>
          </g>
        </g>
      </g>
    </g>
    <g id="g538">
      <g id="g540">
        <g id="g546">
          <g id="g548">
            <path d="m 642.954,223.007 c -4.53,-0.29 -8.385,-1.99 -10.121,-6.335 v 0 c -1.835,-4.587 -1.431,-9.246 1.652,-13.35 v 0 c 2.298,-3.059 5.777,-4.047 9.307,-4.573 v 0 c 7.135,-1.063 14.038,4.636 12.873,12 v 0 c -3.452,1.178 -10.57,1.023 -12.588,-0.393 v 0 c 0.112,-0.927 0.236,-1.955 0.364,-3.024 v 0 c 1.452,-0.174 2.69,-0.319 4.099,-0.487 v 0 c -2.255,-3.1 -5.717,-2.974 -7.079,0.083 v 0 c -1.17,2.625 -1.338,5.398 -0.293,8.187 v 0 c 0.665,1.776 1.962,2.865 3.725,2.644 v 0 c 1.214,-0.154 2.354,-1.136 3.456,-1.856 v 0 c 0.585,-0.382 0.987,-1.387 1.527,-1.43 v 0 c 2.093,-0.172 4.209,-0.071 6.271,-0.071 v 0 c 0.326,3.408 -1.559,6.233 -4.453,7.515 v 0 c -2.069,0.915 -4.185,1.177 -6.339,1.177 v 0 c -0.795,0 -1.596,-0.036 -2.401,-0.087" style="fill:url(#linearGradient556);stroke:none" id="path558"/>
          </g>
        </g>
      </g>
    </g>
    <g id="g560">
      <g id="g562">
        <g id="g568">
          <g id="g570">
            <path d="m 557.573,222.798 c -1.424,-4.111 -2.87,-8.036 -4.138,-12.016 v 0 c -1.244,-3.906 -2.869,-7.727 -3.504,-11.949 v 0 h 6.039 c 0.627,1.55 1.206,2.981 1.755,4.335 v 0 h 7.202 c 0.353,-1.046 0.504,-1.986 0.97,-2.73 v 0 c 0.438,-0.698 1.164,-1.624 1.839,-1.691 v 0 c 2.179,-0.215 4.392,-0.08 7.206,-0.08 v 0 c -2.907,8.386 -5.654,16.312 -8.365,24.131 v 0 z m 3.171,-9.26 c 0.213,0.042 0.425,0.082 0.638,0.124 v 0 c 0.51,-1.336 1.019,-2.672 1.646,-4.314 v 0 h -3.475 c 0.425,1.495 0.809,2.843 1.191,4.19" style="fill:url(#linearGradient578);stroke:none" id="path580"/>
          </g>
        </g>
      </g>
    </g>
  </g>
</svg>