<svg xmlns="http://www.w3.org/2000/svg" style="display:none">
  <!-- Menu / Close -->
  <symbol id="menu" viewBox="0 0 24 24"><path fill="currentColor" d="M3 6h18M3 12h18M3 18h18"/></symbol>
  <symbol id="x" viewBox="0 0 24 24"><path fill="currentColor" d="M6 6l12 12M18 6L6 18"/></symbol>

  <!-- Theme -->
  <symbol id="sun" viewBox="0 0 24 24">
    <path fill="currentColor" d="M12 4V2m0 20v-2M4 12H2m20 0h-2M5 5l-1-1m16 16-1-1M5 19l-1 1m16-16 1-1"/>
    <circle cx="12" cy="12" r="4" fill="currentColor"/>
  </symbol>
  <symbol id="moon" viewBox="0 0 24 24">
    <path fill="currentColor" d="M21 12.79A9 9 0 1 1 11.21 3c.2 0 .39.01.58.03A7 7 0 0 0 21 12.79Z"/>
  </symbol>

  <!-- Social -->
  <symbol id="facebook" viewBox="0 0 24 24">
    <path fill="currentColor" d="M13 22v-9h3l1-4h-4V7c0-1 .5-2 2-2h2V1h-3c-3 0-5 2-5 5v3H6v4h3v9h4z"/>
  </symbol>
  <symbol id="instagram" viewBox="0 0 24 24">
    <path fill="currentColor" d="M7 2h10a5 5 0 0 1 5 5v10a5 5 0 0 1-5 5H7a5 5 0 0 1-5-5V7a5 5 0 0 1 5-5Zm5 5a5 5 0 1 0 0 10 5 5 0 0 0 0-10Zm6.5-.75a1.25 1.25 0 1 0 0 2.5 1.25 1.25 0 0 0 0-2.5Z"/>
  </symbol>
  <symbol id="discord" viewBox="0 0 24 24">
    <path fill="currentColor" d="M20 4a18 18 0 0 0-4.5-1.5l-.2.4a16 16 0 0 1 4 1.6C17.7 3.6 15.8 3 14 3c-1.8 0-3.7.6-5.3 1.5 1.3-.5 2.5-.9 3.9-1.1l-.2-.4C10 3.5 8 4 6 5 3 9-1 19 3 21c2 1 3.9 1.5 6 2l.7-2c-1.5-.5-2.8-1-4.2-1.7l.4-.3c.3.2.7.4 1 .6 2.6 1.2 5.7 1.2 8.3 0 .3-.1.7-.3 1-.6l.4.3c-1.4.7-2.7 1.2-4.2 1.7l.8 2c2.1-.5 4-.9 6-2 3-2 0-12-3-17Z"/>
  </symbol>
  <symbol id="whatsapp" viewBox="0 0 24 24">
    <path fill="currentColor" d="M.5 23l1.7-6A10 10 0 1 1 10 22a10 10 0 0 1-5.3-1.5L.5 23Zm6.7-8.1c3.1 2.1 4.9 2.6 5.8 2.3.9-.3 1.8-1.3 2-2 .2-.7 0-1.2-.4-1.4l-1.5-.7c-.3-.1-.7 0-.9.3-.3.5-.6 1-.8 1-.2.1-.6 0-1.2-.4a9 9 0 0 1-2.2-2.1c-.4-.6-.5-1-.4-1.2.1-.2.5-.4 1-.6.3-.1.5-.5.4-.9l-.7-1.5c-.2-.4-.8-.6-1.4-.4-.7.2-1.7 1.1-2 2-.3.9.2 2.7 2.3 5.8Z"/>
  </symbol>
</svg>
