<svg width="256" height="256" viewBox="0 0 256 256" fill="none" xmlns="http://www.w3.org/2000/svg">
  <defs>
    <linearGradient id="mirrorGold" x1="0" y1="0" x2="256" y2="256" gradientUnits="userSpaceOnUse">
      <stop offset="0.0" stop-color="#CA8A04"/>
      <stop offset="0.2" stop-color="#FDE047"/>
      <stop offset="0.45" stop-color="#FEF08A"/>
      <stop offset="0.5" stop-color="#FFFFFF"/>
      <stop offset="0.55" stop-color="#FEF08A"/>
      <stop offset="0.8" stop-color="#EAB308"/>
      <stop offset="1.0" stop-color="#A16207"/>
    </linearGradient>

    <radialGradient id="matteField" cx="128" cy="128" r="128" gradientUnits="userSpaceOnUse">
      <stop offset="0.6" stop-color="#FACC15"/>
      <stop offset="1.0" stop-color="#EAB308"/>
    </radialGradient>

    <pattern id="hexMesh" x="0" y="0" width="14" height="24" patternUnits="userSpaceOnUse">
       <path d="M7 0 L14 4 V12 L7 16 L0 12 V4 Z" fill="none" stroke="#CA8A04" stroke-width="0.5" opacity="0.4"/>
    </pattern>

    <filter id="crispStamp" x="-20%" y="-20%" width="140%" height="140%">
      <feDropShadow dx="1" dy="1" stdDeviation="0.5" flood-color="#A16207" flood-opacity="0.8"/>
    </filter>
  </defs>

  <circle cx="128" cy="128" r="126" fill="url(#mirrorGold)" stroke="#A16207" stroke-width="0.5"/>

  <circle cx="128" cy="128" r="114" fill="url(#matteField)" stroke="#CA8A04" stroke-width="1"/>

  <circle cx="128" cy="128" r="114" fill="url(#hexMesh)"/>

  <g stroke="#CA8A04" stroke-width="0.75" opacity="0.3">
    <circle cx="128" cy="128" r="105" stroke-dasharray="1 2"/>
    <path d="M128 128 L128 20" transform="rotate(0 128 128)"/>
    <path d="M128 128 L128 20" transform="rotate(30 128 128)"/>
    <path d="M128 128 L128 20" transform="rotate(60 128 128)"/>
    <path d="M128 128 L128 20" transform="rotate(90 128 128)"/>
    <path d="M128 128 L128 20" transform="rotate(120 128 128)"/>
    <path d="M128 128 L128 20" transform="rotate(150 128 128)"/>
    <path d="M128 128 L128 20" transform="rotate(180 128 128)"/>
    <path d="M128 128 L128 20" transform="rotate(210 128 128)"/>
    <path d="M128 128 L128 20" transform="rotate(240 128 128)"/>
    <path d="M128 128 L128 20" transform="rotate(270 128 128)"/>
    <path d="M128 128 L128 20" transform="rotate(300 128 128)"/>
    <path d="M128 128 L128 20" transform="rotate(330 128 128)"/>
  </g>

  <circle cx="128" cy="128" r="108" fill="none" stroke="url(#mirrorGold)" stroke-width="3" stroke-dasharray="0.5 8" stroke-linecap="round" filter="url(#crispStamp)"/>

  <path id="topCurve" d="M 40,128 A 88,88 0 0,1 216,128" fill="none" />
  <path id="botCurve" d="M 50,128 A 78,78 0 0,0 206,128" fill="none" />

  <text fill="url(#mirrorGold)" stroke="#A16207" stroke-width="0.25" font-family="Times New Roman, Serif" font-weight="900" font-size="20" letter-spacing="4" filter="url(#crispStamp)">
    <textPath href="#topCurve" startOffset="50%" text-anchor="middle">DELTACROWN</textPath>
  </text>

  <text fill="url(#mirrorGold)" stroke="#A16207" stroke-width="0.25" font-family="Times New Roman, Serif" font-weight="bold" font-size="10" letter-spacing="3" filter="url(#crispStamp)">
    <textPath href="#botCurve" startOffset="50%" text-anchor="middle">EST 2025</textPath>
  </text>

  <g transform="translate(128 128)" filter="url(#crispStamp)">
    <g transform="translate(-32 -42)">
      <path d="M 0 0 H 35 C 65 0 80 25 80 42 C 80 65 65 84 35 84 H 0 V 0 Z" fill="url(#mirrorGold)" stroke="#A16207" stroke-width="0.5"/>

      <path d="M 18 18 V 66 H 30 C 45 66 58 55 58 42 C 58 30 45 18 30 18 H 18 Z" fill="url(#matteField)" stroke="#CA8A04" stroke-width="1"/>

      <rect x="24" y="-14" width="8" height="20" fill="url(#mirrorGold)" stroke="#A16207" stroke-width="0.5"/> <rect x="24" y="78" width="8" height="20" fill="url(#mirrorGold)" stroke="#A16207" stroke-width="0.5"/>  <path d="M 0 0 L 0 -14 L 10 -4 L 20 -14 L 20 0 H 0 Z" fill="url(#mirrorGold)" stroke="#A16207" stroke-width="0.5"/>
      <circle cx="10" cy="-4" r="2" fill="#FFFFFF"/>
    </g>
  </g>

  <path d="M 90 30 L 100 30 L 180 200 L 170 200 Z" fill="white" opacity="0.2" style="mix-blend-mode: overlay"/>
</svg>