<svg width="256" height="256" viewBox="0 0 256 256" fill="none" xmlns="http://www.w3.org/2000/svg">
  <defs>
    <linearGradient id="yellowGold" x1="0" y1="0" x2="256" y2="256" gradientUnits="userSpaceOnUse">
      <stop offset="0.0" stop-color="#DAA520"/>   <stop offset="0.2" stop-color="#FFD700"/>   <stop offset="0.4" stop-color="#FFFACD"/>   <stop offset="0.5" stop-color="#FDB931"/>   <stop offset="0.6" stop-color="#FFD700"/>   <stop offset="0.8" stop-color="#E1B12C"/>   <stop offset="1.0" stop-color="#B8860B"/>   </linearGradient>

    <radialGradient id="deepYellowField" cx="128" cy="128" r="128" gradientUnits="userSpaceOnUse">
      <stop offset="0.4" stop-color="#B8860B"/>   <stop offset="1.0" stop-color="#8B6508"/>   </radialGradient>

    <pattern id="vTechPattern" x="0" y="0" width="20" height="20" patternUnits="userSpaceOnUse">
      <path d="M0 0 L10 10 L20 0" fill="none" stroke="#FDB931" stroke-width="0.5" opacity="0.8"/>
      <path d="M10 10 V20" stroke="#FDB931" stroke-width="0.5" opacity="0.6"/>
      <circle cx="10" cy="10" r="1.5" fill="#FFFACD" opacity="0.9"/>
    </pattern>

    <filter id="engrave" x="-20%" y="-20%" width="140%" height="140%">
      <feOffset dx="1" dy="2" in="SourceAlpha" result="off"/>
      <feFlood flood-color="#8B6508" flood-opacity="0.8" result="color"/>
      <feComposite in="color" in2="off" operator="in" result="shadow"/>
      <feComposite in="SourceGraphic" in2="shadow" operator="over"/>
    </filter>
  </defs>

  <circle cx="128" cy="128" r="126" fill="url(#yellowGold)" stroke="#8B6508" stroke-width="0.5"/>

  <circle cx="128" cy="128" r="114" fill="url(#deepYellowField)" stroke="#8B6508" stroke-width="1"/>

  <circle cx="128" cy="128" r="113" fill="url(#vTechPattern)"/>

  <g stroke="#FFD700" stroke-width="0.5" opacity="0.3">
    <path d="M128 128 L128 20" transform="rotate(0 128 128)"/>
    <path d="M128 128 L128 20" transform="rotate(30 128 128)"/>
    <path d="M128 128 L128 20" transform="rotate(60 128 128)"/>
    <path d="M128 128 L128 20" transform="rotate(90 128 128)"/>
    <path d="M128 128 L128 20" transform="rotate(120 128 128)"/>
    <path d="M128 128 L128 20" transform="rotate(150 128 128)"/>
    <path d="M128 128 L128 20" transform="rotate(180 128 128)"/>
    <path d="M128 128 L128 20" transform="rotate(210 128 128)"/>
    <path d="M128 128 L128 20" transform="rotate(240 128 128)"/>
    <path d="M128 128 L128 20" transform="rotate(270 128 128)"/>
    <path d="M128 128 L128 20" transform="rotate(300 128 128)"/>
    <path d="M128 128 L128 20" transform="rotate(330 128 128)"/>
  </g>

  <circle cx="128" cy="128" r="108" fill="none" stroke="url(#yellowGold)" stroke-width="2.5" stroke-dasharray="0.5 5" stroke-linecap="butt" filter="url(#engrave)"/>

  <path id="topCurve" d="M 40,128 A 88,88 0 0,1 216,128" fill="none" />
  <path id="botCurve" d="M 50,128 A 78,78 0 0,0 206,128" fill="none" />

  <text fill="url(#yellowGold)" font-family="Times New Roman, Serif" font-weight="900" font-size="20" letter-spacing="4" filter="url(#engrave)">
    <textPath href="#topCurve" startOffset="50%" text-anchor="middle">DELTACROWN</textPath>
  </text>

  <text fill="url(#yellowGold)" font-family="Times New Roman, Serif" font-weight="bold" font-size="10" letter-spacing="3" opacity="0.9" filter="url(#engrave)">
    <textPath href="#botCurve" startOffset="50%" text-anchor="middle">EST 2025</textPath>
  </text>

  <g transform="translate(128 128)" filter="url(#engrave)">
    <g transform="translate(-32 -42)">
      <path d="M 0 0 H 35 C 65 0 80 25 80 42 C 80 65 65 84 35 84 H 0 V 0 Z" fill="url(#yellowGold)"/>

      <path d="M 1 1 H 35 C 64 1 79 26 79 42 C 79 64 64 83 35 83 H 1 V 1 Z" fill="none" stroke="#FFFACD" stroke-width="0.75" opacity="0.9"/>

      <path d="M 18 18 V 66 H 30 C 45 66 58 55 58 42 C 58 30 45 18 30 18 H 18 Z" fill="url(#deepYellowField)" stroke="#8B6508" stroke-width="1"/>

      <path d="M 18 18 V 66 H 30 C 45 66 58 55 58 42 C 58 30 45 18 30 18 H 18 Z" fill="url(#vTechPattern)" opacity="0.5"/>

      <rect x="25" y="-10" width="6" height="18" fill="url(#yellowGold)"/>
      <path d="M25 -10 H31 V8 H25 Z" fill="none" stroke="#FFFACD" stroke-width="0.5" opacity="0.6"/>
      <rect x="25" y="76" width="6" height="18" fill="url(#yellowGold)"/>
      <path d="M25 76 H31 V94 H25 Z" fill="none" stroke="#FFFACD" stroke-width="0.5" opacity="0.6"/>

      <path d="M 0 0 L 0 -14 L 10 -4 L 20 -14 L 20 0 H 0 Z" fill="url(#yellowGold)"/>

      <path d="M 10 -8 L 13 -5 L 10 -2 L 7 -5 Z" fill="#FFFACD"/>
    </g>
  </g>
</svg>