<svg width="256" height="256" viewBox="0 0 256 256" fill="none" xmlns="http://www.w3.org/2000/svg">
  <defs>
    <linearGradient id="yellowPolished" x1="0" y1="0" x2="256" y2="256" gradientUnits="userSpaceOnUse">
      <stop offset="0.0" stop-color="#DAA520"/>   <stop offset="0.25" stop-color="#FFD700"/>  <stop offset="0.45" stop-color="#FFFACD"/>  <stop offset="0.55" stop-color="#FDB931"/>  <stop offset="0.75" stop-color="#E1B12C"/>  <stop offset="1.0" stop-color="#B8860B"/>   </linearGradient>

    <radialGradient id="satinGoldField" cx="128" cy="128" r="128" gradientUnits="userSpaceOnUse">
      <stop offset="0.4" stop-color="#CD853F"/>   <stop offset="1.0" stop-color="#8B4513"/>   </radialGradient>

    <filter id="crispEngrave" x="-20%" y="-20%" width="140%" height="140%">
      <feOffset dx="1" dy="1" in="SourceAlpha" result="off"/>
      <feFlood flood-color="#8B4513" flood-opacity="0.6" result="color"/>
      <feComposite in="color" in2="off" operator="in" result="shadow"/>
      <feComposite in="SourceGraphic" in2="shadow" operator="over"/>
    </filter>
  </defs>

  <circle cx="128" cy="128" r="126" fill="url(#yellowPolished)" stroke="#8B4513" stroke-width="0.5"/>

  <circle cx="128" cy="128" r="114" fill="url(#satinGoldField)" stroke="#8B4513" stroke-width="1"/>

  <g opacity="0.6">
    <pattern id="hexMesh" x="0" y="0" width="14" height="24" patternUnits="userSpaceOnUse">
       <path d="M7 0 L14 4 V12 L7 16 L0 12 V4 Z" fill="none" stroke="#FFD700" stroke-width="0.5"/>
    </pattern>
    <circle cx="128" cy="128" r="114" fill="url(#hexMesh)"/>

    <g stroke="#FDB931" stroke-width="0.5" stroke-dasharray="1 3">
        <path d="M128 128 L128 30" transform="rotate(0 128 128)"/>
        <path d="M128 128 L128 30" transform="rotate(20 128 128)"/>
        <path d="M128 128 L128 30" transform="rotate(40 128 128)"/>
        <path d="M128 128 L128 30" transform="rotate(60 128 128)"/>
        <path d="M128 128 L128 30" transform="rotate(80 128 128)"/>
        <path d="M128 128 L128 30" transform="rotate(100 128 128)"/>
        <path d="M128 128 L128 30" transform="rotate(120 128 128)"/>
        <path d="M128 128 L128 30" transform="rotate(140 128 128)"/>
        <path d="M128 128 L128 30" transform="rotate(160 128 128)"/>
        <path d="M128 128 L128 30" transform="rotate(180 128 128)"/>
        <path d="M128 128 L128 30" transform="rotate(200 128 128)"/>
        <path d="M128 128 L128 30" transform="rotate(220 128 128)"/>
        <path d="M128 128 L128 30" transform="rotate(240 128 128)"/>
        <path d="M128 128 L128 30" transform="rotate(260 128 128)"/>
        <path d="M128 128 L128 30" transform="rotate(280 128 128)"/>
        <path d="M128 128 L128 30" transform="rotate(300 128 128)"/>
        <path d="M128 128 L128 30" transform="rotate(320 128 128)"/>
        <path d="M128 128 L128 30" transform="rotate(340 128 128)"/>
    </g>
  </g>

  <circle cx="128" cy="128" r="108" fill="none" stroke="url(#yellowPolished)" stroke-width="2" stroke-dasharray="0.5 4" stroke-linecap="round" filter="url(#crispEngrave)"/>

  <path id="topCurve" d="M 40,128 A 88,88 0 0,1 216,128" fill="none" />
  <path id="botCurve" d="M 50,128 A 78,78 0 0,0 206,128" fill="none" />

  <text fill="url(#yellowPolished)" font-family="Times New Roman, Serif" font-weight="900" font-size="20" letter-spacing="4" filter="url(#crispEngrave)">
    <textPath href="#topCurve" startOffset="50%" text-anchor="middle">DELTACROWN</textPath>
  </text>

  <text fill="url(#yellowPolished)" font-family="Times New Roman, Serif" font-weight="bold" font-size="10" letter-spacing="3" opacity="0.9" filter="url(#crispEngrave)">
    <textPath href="#botCurve" startOffset="50%" text-anchor="middle">EST 2025</textPath>
  </text>

  <g transform="translate(128 128)" filter="url(#crispEngrave)">
    <g transform="translate(-32 -42)">
      <path d="M 0 0 H 35 C 65 0 80 25 80 42 C 80 65 65 84 35 84 H 0 V 0 Z" fill="url(#yellowPolished)"/>

      <path d="M 18 18 V 66 H 30 C 45 66 58 55 58 42 C 58 30 45 18 30 18 H 18 Z" fill="url(#satinGoldField)" stroke="#8B4513" stroke-width="0.5"/>

      <path d="M 18 18 V 66 H 30 C 45 66 58 55 58 42 C 58 30 45 18 30 18 H 18 Z" fill="url(#hexMesh)" opacity="0.5"/>

      <path d="M 25 -12 H 31 V 10 H 25 V -12 Z" fill="url(#yellowPolished)"/>
      <path d="M 25 74 H 31 V 96 H 25 V 74 Z" fill="url(#yellowPolished)"/>

      <path d="M 0 0 L 0 -14 L 10 -4 L 20 -14 L 20 0 H 0 Z" fill="url(#yellowPolished)"/>
      <path d="M 10 -7 L 13 -4 L 10 -1 L 7 -4 Z" fill="#FFFACD"/>
    </g>
  </g>
</svg>