<?xml version="1.0" encoding="UTF-8" standalone="no"?>
<!DOCTYPE svg PUBLIC "-//W3C//DTD SVG 1.1//EN"
 "http://www.w3.org/Graphics/SVG/1.1/DTD/svg11.dtd">
<!-- Generated by graphviz version 2.43.0 (0)
 -->
<!-- Title: DataFlow Pages: 1 -->
<svg width="1594pt" height="344pt"
 viewBox="0.00 0.00 1594.00 344.00" xmlns="http://www.w3.org/2000/svg" xmlns:xlink="http://www.w3.org/1999/xlink">
<g id="graph0" class="graph" transform="scale(1 1) rotate(0) translate(4 340)">
<title>DataFlow</title>
<polygon fill="white" stroke="transparent" points="-4,4 -4,-340 1590,-340 1590,4 -4,4"/>
<g id="clust1" class="cluster">
<title>cluster_client</title>
<path fill="none" stroke="black" d="M1014,-62C1014,-62 1158,-62 1158,-62 1164,-62 1170,-68 1170,-74 1170,-74 1170,-179 1170,-179 1170,-185 1164,-191 1158,-191 1158,-191 1014,-191 1014,-191 1008,-191 1002,-185 1002,-179 1002,-179 1002,-74 1002,-74 1002,-68 1008,-62 1014,-62"/>
<text text-anchor="middle" x="1086" y="-175.8" font-family="Times,serif" font-size="14.00">Client (Browser)</text>
</g>
<g id="clust2" class="cluster">
<title>cluster_server</title>
<path fill="none" stroke="black" d="M20,-199C20,-199 1506.5,-199 1506.5,-199 1512.5,-199 1518.5,-205 1518.5,-211 1518.5,-211 1518.5,-316 1518.5,-316 1518.5,-322 1512.5,-328 1506.5,-328 1506.5,-328 20,-328 20,-328 14,-328 8,-322 8,-316 8,-316 8,-211 8,-211 8,-205 14,-199 20,-199"/>
<text text-anchor="middle" x="763.25" y="-312.8" font-family="Times,serif" font-size="14.00">Django Backend</text>
</g>
<g id="clust3" class="cluster">
<title>cluster_data</title>
<path fill="none" stroke="black" d="M1364,-8C1364,-8 1566,-8 1566,-8 1572,-8 1578,-14 1578,-20 1578,-20 1578,-179 1578,-179 1578,-185 1572,-191 1566,-191 1566,-191 1364,-191 1364,-191 1358,-191 1352,-185 1352,-179 1352,-179 1352,-20 1352,-20 1352,-14 1358,-8 1364,-8"/>
<text text-anchor="middle" x="1465" y="-175.8" font-family="Times,serif" font-size="14.00">Data Stores &amp; Services</text>
</g>
<!-- A1 -->
<g id="node1" class="node">
<title>A1</title>
<polygon fill="none" stroke="black" points="1162,-160 1010,-160 1010,-124 1162,-124 1162,-160"/>
<text text-anchor="middle" x="1086" y="-139.5" font-family="Times,serif" font-size="10.00">HTML (Django Templates)</text>
</g>
<!-- B1 -->
<g id="node3" class="node">
<title>B1</title>
<polygon fill="none" stroke="black" points="123,-243 16,-243 16,-207 123,-207 123,-243"/>
<text text-anchor="middle" x="69.5" y="-222.5" font-family="Times,serif" font-size="10.00">URLconf (urls.py)</text>
</g>
<!-- A1&#45;&gt;B1 -->
<g id="edge1" class="edge">
<title>A1&#45;&gt;B1</title>
<path fill="none" stroke="black" d="M1009.97,-144.82C863.13,-150.82 527.61,-166.91 247,-198 209.17,-202.19 167.02,-208.57 133.4,-214.08"/>
<polygon fill="black" stroke="black" points="132.55,-210.67 123.25,-215.76 133.69,-217.58 132.55,-210.67"/>
<text text-anchor="middle" x="489" y="-186.8" font-family="Times,serif" font-size="14.00">HTTP GET/POST</text>
</g>
<!-- A2 -->
<g id="node2" class="node">
<title>A2</title>
<polygon fill="none" stroke="black" points="1137.5,-106 1034.5,-106 1034.5,-70 1137.5,-70 1137.5,-106"/>
<text text-anchor="middle" x="1086" y="-85.5" font-family="Times,serif" font-size="10.00">Tailwind CSS / JS</text>
</g>
<!-- A2&#45;&gt;B1 -->
<g id="edge2" class="edge">
<title>A2&#45;&gt;B1</title>
<path fill="none" stroke="black" stroke-dasharray="1,5" d="M1034.35,-90.47C918.9,-96.51 627.53,-114.07 386,-148 276.12,-163.43 247.27,-164.07 141,-196 134.12,-198.07 126.98,-200.56 120.01,-203.21"/>
<polygon fill="black" stroke="black" points="118.67,-199.98 110.64,-206.89 121.23,-206.49 118.67,-199.98"/>
<text text-anchor="middle" x="489" y="-151.8" font-family="Times,serif" font-size="14.00">fetch/XHR (optional)</text>
</g>
<!-- B2 -->
<g id="node4" class="node">
<title>B2</title>
<polygon fill="none" stroke="black" points="368,-243 247,-243 247,-207 368,-207 368,-243"/>
<text text-anchor="middle" x="307.5" y="-222.5" font-family="Times,serif" font-size="10.00">View (function/class)</text>
</g>
<!-- B1&#45;&gt;B2 -->
<g id="edge3" class="edge">
<title>B1&#45;&gt;B2</title>
<path fill="none" stroke="black" d="M123.17,-225C156.7,-225 200.5,-225 236.88,-225"/>
<polygon fill="black" stroke="black" points="236.93,-228.5 246.93,-225 236.93,-221.5 236.93,-228.5"/>
<text text-anchor="middle" x="185" y="-228.8" font-family="Times,serif" font-size="14.00">route match</text>
</g>
<!-- B3 -->
<g id="node5" class="node">
<title>B3</title>
<polygon fill="none" stroke="black" points="780,-297 610,-297 610,-261 780,-261 780,-297"/>
<text text-anchor="middle" x="695" y="-276.5" font-family="Times,serif" font-size="10.00">Forms/Serializers &amp; Validation</text>
</g>
<!-- B2&#45;&gt;B3 -->
<g id="edge4" class="edge">
<title>B2&#45;&gt;B3</title>
<path fill="none" stroke="black" d="M368.42,-240.49C374.34,-241.78 380.27,-242.98 386,-244 457.26,-256.73 538.67,-265.75 599.89,-271.44"/>
<polygon fill="black" stroke="black" points="599.64,-274.93 609.92,-272.35 600.28,-267.96 599.64,-274.93"/>
<text text-anchor="middle" x="489" y="-273.8" font-family="Times,serif" font-size="14.00">bind &amp; validate request data</text>
</g>
<!-- B6 -->
<g id="node8" class="node">
<title>B6</title>
<polygon fill="none" stroke="black" points="768.5,-243 621.5,-243 621.5,-207 768.5,-207 768.5,-243"/>
<text text-anchor="middle" x="695" y="-222.5" font-family="Times,serif" font-size="10.00">Templates render context</text>
</g>
<!-- B2&#45;&gt;B6 -->
<g id="edge9" class="edge">
<title>B2&#45;&gt;B6</title>
<path fill="none" stroke="black" d="M368.31,-225C433.45,-225 538.09,-225 611.12,-225"/>
<polygon fill="black" stroke="black" points="611.21,-228.5 621.21,-225 611.21,-221.5 611.21,-228.5"/>
<text text-anchor="middle" x="489" y="-228.8" font-family="Times,serif" font-size="14.00">context</text>
</g>
<!-- B4 -->
<g id="node6" class="node">
<title>B4</title>
<polygon fill="none" stroke="black" points="1172,-243 1000,-243 1000,-207 1172,-207 1172,-243"/>
<text text-anchor="middle" x="1086" y="-222.5" font-family="Times,serif" font-size="10.00">Service Layer / Business Logic</text>
</g>
<!-- B3&#45;&gt;B4 -->
<g id="edge5" class="edge">
<title>B3&#45;&gt;B4</title>
<path fill="none" stroke="black" d="M780.41,-267.28C842.02,-258.73 925.62,-247.12 989.65,-238.24"/>
<polygon fill="black" stroke="black" points="990.33,-241.68 999.75,-236.83 989.36,-234.74 990.33,-241.68"/>
<text text-anchor="middle" x="890" y="-267.8" font-family="Times,serif" font-size="14.00">cleaned data</text>
</g>
<!-- B5 -->
<g id="node7" class="node">
<title>B5</title>
<polygon fill="none" stroke="black" points="1510.5,-243 1419.5,-243 1419.5,-207 1510.5,-207 1510.5,-243"/>
<text text-anchor="middle" x="1465" y="-222.5" font-family="Times,serif" font-size="10.00">Models (ORM)</text>
</g>
<!-- B4&#45;&gt;B5 -->
<g id="edge6" class="edge">
<title>B4&#45;&gt;B5</title>
<path fill="none" stroke="black" d="M1172.08,-225C1244.8,-225 1347.27,-225 1409.46,-225"/>
<polygon fill="black" stroke="black" points="1409.46,-228.5 1419.46,-225 1409.46,-221.5 1409.46,-228.5"/>
<text text-anchor="middle" x="1266" y="-228.8" font-family="Times,serif" font-size="14.00">create/query/update</text>
</g>
<!-- C3 -->
<g id="node11" class="node">
<title>C3</title>
<polygon fill="none" stroke="black" points="1570,-106 1360,-106 1360,-70 1570,-70 1570,-106"/>
<text text-anchor="middle" x="1465" y="-85.5" font-family="Times,serif" font-size="10.00">External APIs (e.g., Payments, OAuth)</text>
</g>
<!-- B4&#45;&gt;C3 -->
<g id="edge8" class="edge">
<title>B4&#45;&gt;C3</title>
<path fill="none" stroke="black" stroke-dasharray="5,2" d="M1140.29,-206.92C1150.85,-203.13 1161.82,-199.05 1172,-195 1253.34,-162.63 1269.1,-143.15 1352,-115 1358.36,-112.84 1364.98,-110.78 1371.69,-108.83"/>
<polygon fill="black" stroke="black" points="1372.86,-112.14 1381.54,-106.07 1370.97,-105.4 1372.86,-112.14"/>
<text text-anchor="middle" x="1266" y="-190.8" font-family="Times,serif" font-size="14.00">call external services</text>
</g>
<!-- C1 -->
<g id="node9" class="node">
<title>C1</title>
<polygon fill="none" stroke="black" points="1497.5,-160 1432.5,-160 1432.5,-124 1497.5,-124 1497.5,-160"/>
<text text-anchor="middle" x="1465" y="-139.5" font-family="Times,serif" font-size="10.00">Database</text>
</g>
<!-- B5&#45;&gt;C1 -->
<g id="edge7" class="edge">
<title>B5&#45;&gt;C1</title>
<path fill="none" stroke="black" d="M1465,-206.74C1465,-196 1465,-182.19 1465,-170.09"/>
<polygon fill="black" stroke="black" points="1468.5,-170.01 1465,-160.01 1461.5,-170.01 1468.5,-170.01"/>
<text text-anchor="middle" x="1454.5" y="-179.8" font-family="Times,serif" font-size="14.00">SQL via ORM</text>
</g>
<!-- B6&#45;&gt;A1 -->
<g id="edge10" class="edge">
<title>B6&#45;&gt;A1</title>
<path fill="none" stroke="black" d="M768.71,-209.49C834.32,-195.49 930.85,-174.89 1000,-160.14"/>
<polygon fill="black" stroke="black" points="1000.94,-163.51 1009.99,-158 999.48,-156.67 1000.94,-163.51"/>
<text text-anchor="middle" x="890" y="-205.8" font-family="Times,serif" font-size="14.00">rendered HTML response</text>
</g>
<!-- C2 -->
<g id="node10" class="node">
<title>C2</title>
<polygon fill="none" stroke="black" points="1521.5,-52 1408.5,-52 1408.5,-16 1521.5,-16 1521.5,-52"/>
<text text-anchor="middle" x="1465" y="-31.5" font-family="Times,serif" font-size="10.00">Media / Static Files</text>
</g>
<!-- C2&#45;&gt;A1 -->
<g id="edge11" class="edge">
<title>C2&#45;&gt;A1</title>
<path fill="none" stroke="black" stroke-dasharray="1,5" d="M1408.42,-39.84C1351.18,-47.54 1260.61,-64.53 1190,-100 1180.69,-104.67 1181.13,-110 1172,-115 1168.92,-116.69 1165.72,-118.29 1162.44,-119.8"/>
<polygon fill="black" stroke="black" points="1160.84,-116.68 1153.04,-123.85 1163.61,-123.11 1160.84,-116.68"/>
<text text-anchor="middle" x="1266" y="-103.8" font-family="Times,serif" font-size="14.00">images/css/js served</text>
</g>
</g>
</svg>
