<?xml version="1.0" encoding="UTF-8" standalone="no"?>
<!DOCTYPE svg PUBLIC "-//W3C//DTD SVG 1.1//EN"
 "http://www.w3.org/Graphics/SVG/1.1/DTD/svg11.dtd">
<!-- Generated by graphviz version 2.43.0 (0)
 -->
<!-- Title: ER Pages: 1 -->
<svg width="928pt" height="446pt"
 viewBox="0.00 0.00 928.00 446.00" xmlns="http://www.w3.org/2000/svg" xmlns:xlink="http://www.w3.org/1999/xlink">
<g id="graph0" class="graph" transform="scale(1 1) rotate(0) translate(4 442)">
<title>ER</title>
<polygon fill="white" stroke="transparent" points="-4,4 -4,-442 924,-442 924,4 -4,4"/>
<!-- economy.CoinPolicy -->
<g id="node1" class="node">
<title>economy.CoinPolicy</title>
<polygon fill="none" stroke="black" points="20.5,-0.5 20.5,-180.5 281.5,-180.5 281.5,-0.5 20.5,-0.5"/>
<text text-anchor="middle" x="55" y="-93.5" font-family="Times,serif" font-size="10.00">economy</text>
<text text-anchor="middle" x="55" y="-82.5" font-family="Times,serif" font-size="10.00">CoinPolicy</text>
<polyline fill="none" stroke="black" points="89.5,-0.5 89.5,-180.5 "/>
<text text-anchor="start" x="97.5" y="-168.5" font-family="Times,serif" font-size="10.00">tournament : OneToOneField</text>
<text text-anchor="start" x="97.5" y="-145.5" font-family="Times,serif" font-size="10.00">enabled : BooleanField</text>
<text text-anchor="start" x="97.5" y="-122.5" font-family="Times,serif" font-size="10.00">participation : PositiveIntegerField</text>
<text text-anchor="start" x="97.5" y="-99.5" font-family="Times,serif" font-size="10.00">top4 : PositiveIntegerField</text>
<text text-anchor="start" x="97.5" y="-76.5" font-family="Times,serif" font-size="10.00">runner_up : PositiveIntegerField</text>
<text text-anchor="start" x="97.5" y="-53.5" font-family="Times,serif" font-size="10.00">winner : PositiveIntegerField</text>
<text text-anchor="start" x="97.5" y="-30.5" font-family="Times,serif" font-size="10.00">created_at : DateTimeField</text>
<text text-anchor="start" x="97.5" y="-7.5" font-family="Times,serif" font-size="10.00">updated_at : DateTimeField</text>
</g>
<!-- economy.DeltaCrownTransaction -->
<g id="node2" class="node">
<title>economy.DeltaCrownTransaction</title>
<polygon fill="none" stroke="black" points="0,-199.5 0,-425.5 302,-425.5 302,-199.5 0,-199.5"/>
<text text-anchor="middle" x="68.5" y="-315.5" font-family="Times,serif" font-size="10.00">economy</text>
<text text-anchor="middle" x="68.5" y="-304.5" font-family="Times,serif" font-size="10.00">DeltaCrownTransaction</text>
<polyline fill="none" stroke="black" points="137,-199.5 137,-425.5 "/>
<text text-anchor="start" x="145" y="-413.5" font-family="Times,serif" font-size="10.00">wallet : ForeignKey</text>
<text text-anchor="start" x="145" y="-390.5" font-family="Times,serif" font-size="10.00">amount : IntegerField</text>
<text text-anchor="start" x="145" y="-367.5" font-family="Times,serif" font-size="10.00">reason : CharField</text>
<text text-anchor="start" x="145" y="-344.5" font-family="Times,serif" font-size="10.00">tournament : ForeignKey</text>
<text text-anchor="start" x="145" y="-321.5" font-family="Times,serif" font-size="10.00">registration : ForeignKey</text>
<text text-anchor="start" x="145" y="-298.5" font-family="Times,serif" font-size="10.00">match : ForeignKey</text>
<text text-anchor="start" x="145" y="-275.5" font-family="Times,serif" font-size="10.00">note : CharField</text>
<text text-anchor="start" x="145" y="-252.5" font-family="Times,serif" font-size="10.00">created_by : ForeignKey</text>
<text text-anchor="start" x="145" y="-229.5" font-family="Times,serif" font-size="10.00">idempotency_key : CharField</text>
<text text-anchor="start" x="145" y="-206.5" font-family="Times,serif" font-size="10.00">created_at : DateTimeField</text>
</g>
<!-- economy.DeltaCrownWallet -->
<g id="node3" class="node">
<title>economy.DeltaCrownWallet</title>
<polygon fill="none" stroke="black" points="423,-349.5 423,-437.5 701,-437.5 701,-349.5 423,-349.5"/>
<text text-anchor="middle" x="477" y="-396.5" font-family="Times,serif" font-size="10.00">economy</text>
<text text-anchor="middle" x="477" y="-385.5" font-family="Times,serif" font-size="10.00">DeltaCrownWallet</text>
<polyline fill="none" stroke="black" points="531,-349.5 531,-437.5 "/>
<text text-anchor="start" x="539" y="-425.5" font-family="Times,serif" font-size="10.00">profile : OneToOneField</text>
<text text-anchor="start" x="539" y="-402.5" font-family="Times,serif" font-size="10.00">cached_balance : IntegerField</text>
<text text-anchor="start" x="539" y="-379.5" font-family="Times,serif" font-size="10.00">created_at : DateTimeField</text>
<text text-anchor="start" x="539" y="-356.5" font-family="Times,serif" font-size="10.00">updated_at : DateTimeField</text>
</g>
<!-- economy.DeltaCrownTransaction&#45;&gt;economy.DeltaCrownWallet -->
<g id="edge2" class="edge">
<title>economy.DeltaCrownTransaction&#45;&gt;economy.DeltaCrownWallet</title>
<path fill="none" stroke="black" d="M302.2,-342.95C308.21,-344.15 314.16,-345.34 320,-346.5 353.24,-353.1 389.08,-360.14 422.69,-366.7"/>
<text text-anchor="middle" x="362.5" y="-381.3" font-family="Times,serif" font-size="14.00">wallet</text>
<text text-anchor="middle" x="362.5" y="-366.3" font-family="Times,serif" font-size="14.00">M2O</text>
</g>
<!-- tournaments.Registration -->
<g id="node5" class="node">
<title>tournaments.Registration</title>
<polygon fill="none" stroke="black" points="488.5,-294.5 488.5,-330.5 635.5,-330.5 635.5,-294.5 488.5,-294.5"/>
<text text-anchor="middle" x="562" y="-310" font-family="Times,serif" font-size="10.00">tournaments.Registration</text>
</g>
<!-- economy.DeltaCrownTransaction&#45;&gt;tournaments.Registration -->
<g id="edge3" class="edge">
<title>economy.DeltaCrownTransaction&#45;&gt;tournaments.Registration</title>
<path fill="none" stroke="black" d="M302.26,-312.5C365.73,-312.5 436.7,-312.5 488.24,-312.5"/>
<text text-anchor="middle" x="362.5" y="-331.3" font-family="Times,serif" font-size="14.00">registration</text>
<text text-anchor="middle" x="362.5" y="-316.3" font-family="Times,serif" font-size="14.00">M2O</text>
</g>
<!-- tournaments.Match -->
<g id="node6" class="node">
<title>tournaments.Match</title>
<polygon fill="none" stroke="black" points="503.5,-239.5 503.5,-275.5 620.5,-275.5 620.5,-239.5 503.5,-239.5"/>
<text text-anchor="middle" x="562" y="-255" font-family="Times,serif" font-size="10.00">tournaments.Match</text>
</g>
<!-- economy.DeltaCrownTransaction&#45;&gt;tournaments.Match -->
<g id="edge4" class="edge">
<title>economy.DeltaCrownTransaction&#45;&gt;tournaments.Match</title>
<path fill="none" stroke="black" d="M302.07,-281.26C308.11,-280.27 314.11,-279.35 320,-278.5 382.35,-269.5 454.38,-263.84 503.33,-260.69"/>
<text text-anchor="middle" x="362.5" y="-297.3" font-family="Times,serif" font-size="14.00">match</text>
<text text-anchor="middle" x="362.5" y="-282.3" font-family="Times,serif" font-size="14.00">M2O</text>
</g>
<!-- user_profile.UserProfile -->
<g id="node4" class="node">
<title>user_profile.UserProfile</title>
<polygon fill="none" stroke="black" points="783,-375.5 783,-411.5 920,-411.5 920,-375.5 783,-375.5"/>
<text text-anchor="middle" x="851.5" y="-391" font-family="Times,serif" font-size="10.00">user_profile.UserProfile</text>
</g>
<!-- economy.DeltaCrownWallet&#45;&gt;user_profile.UserProfile -->
<g id="edge1" class="edge">
<title>economy.DeltaCrownWallet&#45;&gt;user_profile.UserProfile</title>
<path fill="none" stroke="black" stroke-width="2" d="M701.28,-393.5C729.62,-393.5 758.24,-393.5 782.73,-393.5"/>
<text text-anchor="middle" x="742" y="-412.3" font-family="Times,serif" font-size="14.00">profile</text>
<text text-anchor="middle" x="742" y="-397.3" font-family="Times,serif" font-size="14.00">O2O</text>
</g>
</g>
</svg>
