<?xml version="1.0" encoding="UTF-8" standalone="no"?>
<!DOCTYPE svg PUBLIC "-//W3C//DTD SVG 1.1//EN"
 "http://www.w3.org/Graphics/SVG/1.1/DTD/svg11.dtd">
<!-- Generated by graphviz version 2.43.0 (0)
 -->
<!-- Title: ER Pages: 1 -->
<svg width="782pt" height="228pt"
 viewBox="0.00 0.00 782.00 227.50" xmlns="http://www.w3.org/2000/svg" xmlns:xlink="http://www.w3.org/1999/xlink">
<g id="graph0" class="graph" transform="scale(1 1) rotate(0) translate(4 223.5)">
<title>ER</title>
<polygon fill="white" stroke="transparent" points="-4,4 -4,-223.5 778,-223.5 778,4 -4,4"/>
<!-- ecommerce.Order -->
<g id="node1" class="node">
<title>ecommerce.Order</title>
<polygon fill="none" stroke="black" points="337,-131 337,-219 566,-219 566,-131 337,-131"/>
<text text-anchor="middle" x="374.5" y="-178" font-family="Times,serif" font-size="10.00">ecommerce</text>
<text text-anchor="middle" x="374.5" y="-167" font-family="Times,serif" font-size="10.00">Order</text>
<polyline fill="none" stroke="black" points="412,-131 412,-219 "/>
<text text-anchor="start" x="420" y="-207" font-family="Times,serif" font-size="10.00">user : ForeignKey</text>
<text text-anchor="start" x="420" y="-184" font-family="Times,serif" font-size="10.00">status : CharField</text>
<text text-anchor="start" x="420" y="-161" font-family="Times,serif" font-size="10.00">total_price : DecimalField</text>
<text text-anchor="start" x="420" y="-138" font-family="Times,serif" font-size="10.00">created_at : DateTimeField</text>
</g>
<!-- user_profile.UserProfile -->
<g id="node4" class="node">
<title>user_profile.UserProfile</title>
<polygon fill="none" stroke="black" points="637,-157 637,-193 774,-193 774,-157 637,-157"/>
<text text-anchor="middle" x="705.5" y="-172.5" font-family="Times,serif" font-size="10.00">user_profile.UserProfile</text>
</g>
<!-- ecommerce.Order&#45;&gt;user_profile.UserProfile -->
<g id="edge1" class="edge">
<title>ecommerce.Order&#45;&gt;user_profile.UserProfile</title>
<path fill="none" stroke="black" d="M566.34,-175C590.47,-175 615.2,-175 636.94,-175"/>
<text text-anchor="middle" x="601.5" y="-193.8" font-family="Times,serif" font-size="14.00">user</text>
<text text-anchor="middle" x="601.5" y="-178.8" font-family="Times,serif" font-size="14.00">M2O</text>
</g>
<!-- ecommerce.OrderItem -->
<g id="node2" class="node">
<title>ecommerce.OrderItem</title>
<polygon fill="none" stroke="black" points="0,-38 0,-126 245,-126 245,-38 0,-38"/>
<text text-anchor="middle" x="37.5" y="-85" font-family="Times,serif" font-size="10.00">ecommerce</text>
<text text-anchor="middle" x="37.5" y="-74" font-family="Times,serif" font-size="10.00">OrderItem</text>
<polyline fill="none" stroke="black" points="75,-38 75,-126 "/>
<text text-anchor="start" x="83" y="-114" font-family="Times,serif" font-size="10.00">order : ForeignKey</text>
<text text-anchor="start" x="83" y="-91" font-family="Times,serif" font-size="10.00">product : ForeignKey</text>
<text text-anchor="start" x="83" y="-68" font-family="Times,serif" font-size="10.00">quantity : PositiveIntegerField</text>
<text text-anchor="start" x="83" y="-45" font-family="Times,serif" font-size="10.00">price : DecimalField</text>
</g>
<!-- ecommerce.OrderItem&#45;&gt;ecommerce.Order -->
<g id="edge2" class="edge">
<title>ecommerce.OrderItem&#45;&gt;ecommerce.Order</title>
<path fill="none" stroke="black" d="M245.26,-116.63C275.22,-125.15 307.19,-134.24 336.76,-142.65"/>
<text text-anchor="middle" x="291" y="-154.8" font-family="Times,serif" font-size="14.00">order</text>
<text text-anchor="middle" x="291" y="-139.8" font-family="Times,serif" font-size="14.00">M2O</text>
</g>
<!-- ecommerce.Product -->
<g id="node3" class="node">
<title>ecommerce.Product</title>
<polygon fill="none" stroke="black" points="337,-0.5 337,-111.5 566,-111.5 566,-0.5 337,-0.5"/>
<text text-anchor="middle" x="374.5" y="-59" font-family="Times,serif" font-size="10.00">ecommerce</text>
<text text-anchor="middle" x="374.5" y="-48" font-family="Times,serif" font-size="10.00">Product</text>
<polyline fill="none" stroke="black" points="412,-0.5 412,-111.5 "/>
<text text-anchor="start" x="420" y="-99.5" font-family="Times,serif" font-size="10.00">name : CharField</text>
<text text-anchor="start" x="420" y="-76.5" font-family="Times,serif" font-size="10.00">description : TextField</text>
<text text-anchor="start" x="420" y="-53.5" font-family="Times,serif" font-size="10.00">price : DecimalField</text>
<text text-anchor="start" x="420" y="-30.5" font-family="Times,serif" font-size="10.00">stock : PositiveIntegerField</text>
<text text-anchor="start" x="420" y="-7.5" font-family="Times,serif" font-size="10.00">image : ImageField</text>
</g>
<!-- ecommerce.OrderItem&#45;&gt;ecommerce.Product -->
<g id="edge3" class="edge">
<title>ecommerce.OrderItem&#45;&gt;ecommerce.Product</title>
<path fill="none" stroke="black" d="M245.26,-72.32C275.22,-69.94 307.19,-67.39 336.76,-65.04"/>
<text text-anchor="middle" x="291" y="-89.8" font-family="Times,serif" font-size="14.00">product</text>
<text text-anchor="middle" x="291" y="-74.8" font-family="Times,serif" font-size="14.00">M2O</text>
</g>
</g>
</svg>
