<?xml version="1.0" encoding="UTF-8" standalone="no"?>
<!DOCTYPE svg PUBLIC "-//W3C//DTD SVG 1.1//EN"
 "http://www.w3.org/Graphics/SVG/1.1/DTD/svg11.dtd">
<!-- Generated by graphviz version 2.43.0 (0)
 -->
<!-- Title: ER Pages: 1 -->
<svg width="919pt" height="1111pt"
 viewBox="0.00 0.00 919.00 1111.00" xmlns="http://www.w3.org/2000/svg" xmlns:xlink="http://www.w3.org/1999/xlink">
<g id="graph0" class="graph" transform="scale(1 1) rotate(0) translate(4 1107)">
<title>ER</title>
<polygon fill="white" stroke="transparent" points="-4,4 -4,-1107 915,-1107 915,4 -4,4"/>
<!-- teams.EfootballTeamPreset -->
<g id="node1" class="node">
<title>teams.EfootballTeamPreset</title>
<polygon fill="none" stroke="black" points="409,-899.5 409,-1102.5 685,-1102.5 685,-899.5 409,-899.5"/>
<text text-anchor="middle" x="470" y="-1004" font-family="Times,serif" font-size="10.00">teams</text>
<text text-anchor="middle" x="470" y="-993" font-family="Times,serif" font-size="10.00">EfootballTeamPreset</text>
<polyline fill="none" stroke="black" points="531,-899.5 531,-1102.5 "/>
<text text-anchor="start" x="539" y="-1090.5" font-family="Times,serif" font-size="10.00">profile : ForeignKey</text>
<text text-anchor="start" x="539" y="-1067.5" font-family="Times,serif" font-size="10.00">name : CharField</text>
<text text-anchor="start" x="539" y="-1044.5" font-family="Times,serif" font-size="10.00">team_name : CharField</text>
<text text-anchor="start" x="539" y="-1021.5" font-family="Times,serif" font-size="10.00">team_logo : ImageField</text>
<text text-anchor="start" x="539" y="-998.5" font-family="Times,serif" font-size="10.00">captain_name : CharField</text>
<text text-anchor="start" x="539" y="-975.5" font-family="Times,serif" font-size="10.00">captain_ign : CharField</text>
<text text-anchor="start" x="539" y="-952.5" font-family="Times,serif" font-size="10.00">mate_name : CharField</text>
<text text-anchor="start" x="539" y="-929.5" font-family="Times,serif" font-size="10.00">mate_ign : CharField</text>
<text text-anchor="start" x="539" y="-906.5" font-family="Times,serif" font-size="10.00">created_at : DateTimeField</text>
</g>
<!-- user_profile.UserProfile -->
<g id="node9" class="node">
<title>user_profile.UserProfile</title>
<polygon fill="none" stroke="black" points="774,-709 774,-745 911,-745 911,-709 774,-709"/>
<text text-anchor="middle" x="842.5" y="-724.5" font-family="Times,serif" font-size="10.00">user_profile.UserProfile</text>
</g>
<!-- teams.EfootballTeamPreset&#45;&gt;user_profile.UserProfile -->
<g id="edge2" class="edge">
<title>teams.EfootballTeamPreset&#45;&gt;user_profile.UserProfile</title>
<path fill="none" stroke="black" d="M685.26,-923.61C710.33,-906.15 735.13,-886.38 756,-865 792.02,-828.09 820.23,-773.43 833.4,-745.26"/>
<text text-anchor="middle" x="729.5" y="-927.8" font-family="Times,serif" font-size="14.00">profile</text>
<text text-anchor="middle" x="729.5" y="-912.8" font-family="Times,serif" font-size="14.00">M2O</text>
</g>
<!-- teams.Team -->
<g id="node2" class="node">
<title>teams.Team</title>
<polygon fill="none" stroke="black" points="445,-361.5 445,-748.5 649,-748.5 649,-361.5 445,-361.5"/>
<text text-anchor="middle" x="468.5" y="-558" font-family="Times,serif" font-size="10.00">teams</text>
<text text-anchor="middle" x="468.5" y="-547" font-family="Times,serif" font-size="10.00">Team</text>
<polyline fill="none" stroke="black" points="492,-361.5 492,-748.5 "/>
<text text-anchor="start" x="500" y="-736.5" font-family="Times,serif" font-size="10.00">name : CharField</text>
<text text-anchor="start" x="500" y="-713.5" font-family="Times,serif" font-size="10.00">tag : CharField</text>
<text text-anchor="start" x="500" y="-690.5" font-family="Times,serif" font-size="10.00">name_ci : CharField</text>
<text text-anchor="start" x="500" y="-667.5" font-family="Times,serif" font-size="10.00">tag_ci : CharField</text>
<text text-anchor="start" x="500" y="-644.5" font-family="Times,serif" font-size="10.00">captain : ForeignKey</text>
<text text-anchor="start" x="500" y="-621.5" font-family="Times,serif" font-size="10.00">created_at : DateTimeField</text>
<text text-anchor="start" x="500" y="-598.5" font-family="Times,serif" font-size="10.00">game : CharField</text>
<text text-anchor="start" x="500" y="-575.5" font-family="Times,serif" font-size="10.00">banner_image : ImageField</text>
<text text-anchor="start" x="500" y="-552.5" font-family="Times,serif" font-size="10.00">roster_image : ImageField</text>
<text text-anchor="start" x="500" y="-529.5" font-family="Times,serif" font-size="10.00">region : CharField</text>
<text text-anchor="start" x="500" y="-506.5" font-family="Times,serif" font-size="10.00">twitter : URLField</text>
<text text-anchor="start" x="500" y="-483.5" font-family="Times,serif" font-size="10.00">instagram : URLField</text>
<text text-anchor="start" x="500" y="-460.5" font-family="Times,serif" font-size="10.00">discord : URLField</text>
<text text-anchor="start" x="500" y="-437.5" font-family="Times,serif" font-size="10.00">youtube : URLField</text>
<text text-anchor="start" x="500" y="-414.5" font-family="Times,serif" font-size="10.00">twitch : URLField</text>
<text text-anchor="start" x="500" y="-391.5" font-family="Times,serif" font-size="10.00">linktree : URLField</text>
<text text-anchor="start" x="500" y="-368.5" font-family="Times,serif" font-size="10.00">slug : SlugField</text>
</g>
<!-- teams.Team&#45;&gt;user_profile.UserProfile -->
<g id="edge6" class="edge">
<title>teams.Team&#45;&gt;user_profile.UserProfile</title>
<path fill="none" stroke="black" d="M649.01,-614.19C705.72,-647.43 772.55,-686.59 810.68,-708.94"/>
<text text-anchor="middle" x="729.5" y="-694.8" font-family="Times,serif" font-size="14.00">captain</text>
<text text-anchor="middle" x="729.5" y="-679.8" font-family="Times,serif" font-size="14.00">M2O</text>
</g>
<!-- teams.TeamAchievement -->
<g id="node3" class="node">
<title>teams.TeamAchievement</title>
<polygon fill="none" stroke="black" points="7.5,-576.5 7.5,-733.5 272.5,-733.5 272.5,-576.5 7.5,-576.5"/>
<text text-anchor="middle" x="63" y="-658" font-family="Times,serif" font-size="10.00">teams</text>
<text text-anchor="middle" x="63" y="-647" font-family="Times,serif" font-size="10.00">TeamAchievement</text>
<polyline fill="none" stroke="black" points="118.5,-576.5 118.5,-733.5 "/>
<text text-anchor="start" x="126.5" y="-721.5" font-family="Times,serif" font-size="10.00">team : ForeignKey</text>
<text text-anchor="start" x="126.5" y="-698.5" font-family="Times,serif" font-size="10.00">title : CharField</text>
<text text-anchor="start" x="126.5" y="-675.5" font-family="Times,serif" font-size="10.00">placement : CharField</text>
<text text-anchor="start" x="126.5" y="-652.5" font-family="Times,serif" font-size="10.00">year : PositiveIntegerField</text>
<text text-anchor="start" x="126.5" y="-629.5" font-family="Times,serif" font-size="10.00">notes : CharField</text>
<text text-anchor="start" x="126.5" y="-606.5" font-family="Times,serif" font-size="10.00">tournament : ForeignKey</text>
<text text-anchor="start" x="126.5" y="-583.5" font-family="Times,serif" font-size="10.00">created_at : DateTimeField</text>
</g>
<!-- teams.TeamAchievement&#45;&gt;teams.Team -->
<g id="edge1" class="edge">
<title>teams.TeamAchievement&#45;&gt;teams.Team</title>
<path fill="none" stroke="black" d="M272.8,-645.27C311.35,-640.52 353.26,-633.46 391,-623 408.84,-618.06 427.29,-611.43 444.96,-604.24"/>
<text text-anchor="middle" x="344.5" y="-659.8" font-family="Times,serif" font-size="14.00">team</text>
<text text-anchor="middle" x="344.5" y="-644.8" font-family="Times,serif" font-size="14.00">M2O</text>
</g>
<!-- teams.TeamInvite -->
<g id="node4" class="node">
<title>teams.TeamInvite</title>
<polygon fill="none" stroke="black" points="26,-752.5 26,-955.5 254,-955.5 254,-752.5 26,-752.5"/>
<text text-anchor="middle" x="63" y="-857" font-family="Times,serif" font-size="10.00">teams</text>
<text text-anchor="middle" x="63" y="-846" font-family="Times,serif" font-size="10.00">TeamInvite</text>
<polyline fill="none" stroke="black" points="100,-752.5 100,-955.5 "/>
<text text-anchor="start" x="108" y="-943.5" font-family="Times,serif" font-size="10.00">team : ForeignKey</text>
<text text-anchor="start" x="108" y="-920.5" font-family="Times,serif" font-size="10.00">inviter : ForeignKey</text>
<text text-anchor="start" x="108" y="-897.5" font-family="Times,serif" font-size="10.00">invited_user : ForeignKey</text>
<text text-anchor="start" x="108" y="-874.5" font-family="Times,serif" font-size="10.00">invited_email : EmailField</text>
<text text-anchor="start" x="108" y="-851.5" font-family="Times,serif" font-size="10.00">role : CharField</text>
<text text-anchor="start" x="108" y="-828.5" font-family="Times,serif" font-size="10.00">token : CharField</text>
<text text-anchor="start" x="108" y="-805.5" font-family="Times,serif" font-size="10.00">status : CharField</text>
<text text-anchor="start" x="108" y="-782.5" font-family="Times,serif" font-size="10.00">expires_at : DateTimeField</text>
<text text-anchor="start" x="108" y="-759.5" font-family="Times,serif" font-size="10.00">created_at : DateTimeField</text>
</g>
<!-- teams.TeamInvite&#45;&gt;teams.Team -->
<g id="edge9" class="edge">
<title>teams.TeamInvite&#45;&gt;teams.Team</title>
<path fill="none" stroke="black" d="M254.13,-772.44C268.88,-761.85 283.79,-751.15 298,-741 339.24,-711.53 350.29,-705.19 391,-675 408.5,-662.03 426.93,-648.04 444.74,-634.36"/>
<text text-anchor="middle" x="344.5" y="-759.8" font-family="Times,serif" font-size="14.00">team</text>
<text text-anchor="middle" x="344.5" y="-744.8" font-family="Times,serif" font-size="14.00">M2O</text>
</g>
<!-- teams.TeamInvite&#45;&gt;user_profile.UserProfile -->
<g id="edge10" class="edge">
<title>teams.TeamInvite&#45;&gt;user_profile.UserProfile</title>
<path fill="none" stroke="black" d="M254.07,-853.63C364.66,-851.65 537.49,-844.23 685,-819 717.31,-813.47 727.03,-814.35 756,-799 782.58,-784.92 808.32,-761.49 824.49,-745.2"/>
<text text-anchor="middle" x="547" y="-865.8" font-family="Times,serif" font-size="14.00">inviter</text>
<text text-anchor="middle" x="547" y="-850.8" font-family="Times,serif" font-size="14.00">M2O</text>
</g>
<!-- teams.TeamInvite&#45;&gt;user_profile.UserProfile -->
<g id="edge11" class="edge">
<title>teams.TeamInvite&#45;&gt;user_profile.UserProfile</title>
<path fill="none" stroke="black" d="M254.26,-820.7C301.7,-807.84 357.66,-794.06 409,-785 530.38,-763.57 563.07,-776 685,-758 714.32,-753.67 746.47,-747.55 773.96,-741.88"/>
<text text-anchor="middle" x="547" y="-803.8" font-family="Times,serif" font-size="14.00">invited_user</text>
<text text-anchor="middle" x="547" y="-788.8" font-family="Times,serif" font-size="14.00">M2O</text>
</g>
<!-- teams.TeamMembership -->
<g id="node5" class="node">
<title>teams.TeamMembership</title>
<polygon fill="none" stroke="black" points="11.5,-306.5 11.5,-417.5 268.5,-417.5 268.5,-306.5 11.5,-306.5"/>
<text text-anchor="middle" x="66.5" y="-365" font-family="Times,serif" font-size="10.00">teams</text>
<text text-anchor="middle" x="66.5" y="-354" font-family="Times,serif" font-size="10.00">TeamMembership</text>
<polyline fill="none" stroke="black" points="121.5,-306.5 121.5,-417.5 "/>
<text text-anchor="start" x="129.5" y="-405.5" font-family="Times,serif" font-size="10.00">team : ForeignKey</text>
<text text-anchor="start" x="129.5" y="-382.5" font-family="Times,serif" font-size="10.00">profile : ForeignKey</text>
<text text-anchor="start" x="129.5" y="-359.5" font-family="Times,serif" font-size="10.00">role : CharField</text>
<text text-anchor="start" x="129.5" y="-336.5" font-family="Times,serif" font-size="10.00">status : CharField</text>
<text text-anchor="start" x="129.5" y="-313.5" font-family="Times,serif" font-size="10.00">joined_at : DateTimeField</text>
</g>
<!-- teams.TeamMembership&#45;&gt;teams.Team -->
<g id="edge7" class="edge">
<title>teams.TeamMembership&#45;&gt;teams.Team</title>
<path fill="none" stroke="black" d="M268.78,-380.52C309.31,-389.54 353.34,-402.76 391,-422 409.47,-431.44 427.6,-443.51 444.57,-456.51"/>
<text text-anchor="middle" x="344.5" y="-440.8" font-family="Times,serif" font-size="14.00">team</text>
<text text-anchor="middle" x="344.5" y="-425.8" font-family="Times,serif" font-size="14.00">M2O</text>
</g>
<!-- teams.TeamMembership&#45;&gt;user_profile.UserProfile -->
<g id="edge8" class="edge">
<title>teams.TeamMembership&#45;&gt;user_profile.UserProfile</title>
<path fill="none" stroke="black" d="M268.57,-334.7C407.84,-307.98 619.73,-277.25 685,-322 820.22,-414.71 838.64,-642.23 841.12,-708.57"/>
<text text-anchor="middle" x="547" y="-340.8" font-family="Times,serif" font-size="14.00">profile</text>
<text text-anchor="middle" x="547" y="-325.8" font-family="Times,serif" font-size="14.00">M2O</text>
</g>
<!-- teams.TeamStats -->
<g id="node6" class="node">
<title>teams.TeamStats</title>
<polygon fill="none" stroke="black" points="0,-130.5 0,-287.5 280,-287.5 280,-130.5 0,-130.5"/>
<text text-anchor="middle" x="35" y="-212" font-family="Times,serif" font-size="10.00">teams</text>
<text text-anchor="middle" x="35" y="-201" font-family="Times,serif" font-size="10.00">TeamStats</text>
<polyline fill="none" stroke="black" points="70,-130.5 70,-287.5 "/>
<text text-anchor="start" x="78" y="-275.5" font-family="Times,serif" font-size="10.00">team : ForeignKey</text>
<text text-anchor="start" x="78" y="-252.5" font-family="Times,serif" font-size="10.00">matches_played : PositiveIntegerField</text>
<text text-anchor="start" x="78" y="-229.5" font-family="Times,serif" font-size="10.00">wins : PositiveIntegerField</text>
<text text-anchor="start" x="78" y="-206.5" font-family="Times,serif" font-size="10.00">losses : PositiveIntegerField</text>
<text text-anchor="start" x="78" y="-183.5" font-family="Times,serif" font-size="10.00">win_rate : DecimalField</text>
<text text-anchor="start" x="78" y="-160.5" font-family="Times,serif" font-size="10.00">streak : IntegerField</text>
<text text-anchor="start" x="78" y="-137.5" font-family="Times,serif" font-size="10.00">updated_at : DateTimeField</text>
</g>
<!-- teams.TeamStats&#45;&gt;teams.Team -->
<g id="edge5" class="edge">
<title>teams.TeamStats&#45;&gt;teams.Team</title>
<path fill="none" stroke="black" d="M280.18,-276.31C318.17,-298.01 357.94,-324.04 391,-353 409.95,-369.6 428.15,-388.83 444.99,-408.68"/>
<text text-anchor="middle" x="344.5" y="-371.8" font-family="Times,serif" font-size="14.00">team</text>
<text text-anchor="middle" x="344.5" y="-356.8" font-family="Times,serif" font-size="14.00">M2O</text>
</g>
<!-- teams.ValorantPlayerPreset -->
<g id="node7" class="node">
<title>teams.ValorantPlayerPreset</title>
<polygon fill="none" stroke="black" points="2,-0.5 2,-111.5 278,-111.5 278,-0.5 2,-0.5"/>
<text text-anchor="middle" x="63.5" y="-59" font-family="Times,serif" font-size="10.00">teams</text>
<text text-anchor="middle" x="63.5" y="-48" font-family="Times,serif" font-size="10.00">ValorantPlayerPreset</text>
<polyline fill="none" stroke="black" points="125,-0.5 125,-111.5 "/>
<text text-anchor="start" x="133" y="-99.5" font-family="Times,serif" font-size="10.00">preset : ForeignKey</text>
<text text-anchor="start" x="133" y="-76.5" font-family="Times,serif" font-size="10.00">in_game_name : CharField</text>
<text text-anchor="start" x="133" y="-53.5" font-family="Times,serif" font-size="10.00">riot_id : CharField</text>
<text text-anchor="start" x="133" y="-30.5" font-family="Times,serif" font-size="10.00">discord : CharField</text>
<text text-anchor="start" x="133" y="-7.5" font-family="Times,serif" font-size="10.00">role : CharField</text>
</g>
<!-- teams.ValorantTeamPreset -->
<g id="node8" class="node">
<title>teams.ValorantTeamPreset</title>
<polygon fill="none" stroke="black" points="409,-48 409,-228 685,-228 685,-48 409,-48"/>
<text text-anchor="middle" x="468.5" y="-141" font-family="Times,serif" font-size="10.00">teams</text>
<text text-anchor="middle" x="468.5" y="-130" font-family="Times,serif" font-size="10.00">ValorantTeamPreset</text>
<polyline fill="none" stroke="black" points="528,-48 528,-228 "/>
<text text-anchor="start" x="536" y="-216" font-family="Times,serif" font-size="10.00">profile : ForeignKey</text>
<text text-anchor="start" x="536" y="-193" font-family="Times,serif" font-size="10.00">name : CharField</text>
<text text-anchor="start" x="536" y="-170" font-family="Times,serif" font-size="10.00">team_name : CharField</text>
<text text-anchor="start" x="536" y="-147" font-family="Times,serif" font-size="10.00">team_tag : CharField</text>
<text text-anchor="start" x="536" y="-124" font-family="Times,serif" font-size="10.00">team_logo : ImageField</text>
<text text-anchor="start" x="536" y="-101" font-family="Times,serif" font-size="10.00">banner_image : ImageField</text>
<text text-anchor="start" x="536" y="-78" font-family="Times,serif" font-size="10.00">region : CharField</text>
<text text-anchor="start" x="536" y="-55" font-family="Times,serif" font-size="10.00">created_at : DateTimeField</text>
</g>
<!-- teams.ValorantPlayerPreset&#45;&gt;teams.ValorantTeamPreset -->
<g id="edge4" class="edge">
<title>teams.ValorantPlayerPreset&#45;&gt;teams.ValorantTeamPreset</title>
<path fill="none" stroke="black" d="M278.11,-83.76C320.22,-92.29 366.56,-101.67 408.68,-110.2"/>
<text text-anchor="middle" x="344.5" y="-123.8" font-family="Times,serif" font-size="14.00">preset</text>
<text text-anchor="middle" x="344.5" y="-108.8" font-family="Times,serif" font-size="14.00">M2O</text>
</g>
<!-- teams.ValorantTeamPreset&#45;&gt;user_profile.UserProfile -->
<g id="edge3" class="edge">
<title>teams.ValorantTeamPreset&#45;&gt;user_profile.UserProfile</title>
<path fill="none" stroke="black" d="M685.13,-201.61C712.21,-219.87 737.84,-242.26 756,-269 806.45,-343.27 833.7,-633.15 840.05,-708.84"/>
<text text-anchor="middle" x="729.5" y="-287.8" font-family="Times,serif" font-size="14.00">profile</text>
<text text-anchor="middle" x="729.5" y="-272.8" font-family="Times,serif" font-size="14.00">M2O</text>
</g>
<!-- tournaments.Match -->
<g id="node10" class="node">
<title>tournaments.Match</title>
<polygon fill="none" stroke="black" points="81.5,-522 81.5,-558 198.5,-558 198.5,-522 81.5,-522"/>
<text text-anchor="middle" x="140" y="-537.5" font-family="Times,serif" font-size="10.00">tournaments.Match</text>
</g>
<!-- tournaments.Match&#45;&gt;teams.Team -->
<g id="edge12" class="edge">
<title>tournaments.Match&#45;&gt;teams.Team</title>
<path fill="none" stroke="black" d="M198.83,-544.66C224.62,-548.37 254.8,-555.03 280,-567 289.41,-571.47 288.21,-578.45 298,-582 336.86,-596.07 349.82,-585.56 391,-582 408.42,-580.49 426.81,-578.05 444.61,-575.24"/>
<text text-anchor="middle" x="344.5" y="-607.8" font-family="Times,serif" font-size="14.00">team_a</text>
<text text-anchor="middle" x="344.5" y="-592.8" font-family="Times,serif" font-size="14.00">M2O</text>
</g>
<!-- tournaments.Match&#45;&gt;teams.Team -->
<g id="edge13" class="edge">
<title>tournaments.Match&#45;&gt;teams.Team</title>
<path fill="none" stroke="black" d="M198.6,-541.63C249.28,-543.11 325.04,-545.46 391,-548 408.36,-548.67 426.81,-549.45 444.71,-550.23"/>
<text text-anchor="middle" x="344.5" y="-566.8" font-family="Times,serif" font-size="14.00">team_b</text>
<text text-anchor="middle" x="344.5" y="-551.8" font-family="Times,serif" font-size="14.00">M2O</text>
</g>
<!-- tournaments.Match&#45;&gt;teams.Team -->
<g id="edge14" class="edge">
<title>tournaments.Match&#45;&gt;teams.Team</title>
<path fill="none" stroke="black" d="M198.69,-524.54C249.42,-512.97 325.22,-500.64 391,-510 408.62,-512.51 427.03,-516.54 444.76,-521.18"/>
<text text-anchor="middle" x="344.5" y="-528.8" font-family="Times,serif" font-size="14.00">winner_team</text>
<text text-anchor="middle" x="344.5" y="-513.8" font-family="Times,serif" font-size="14.00">M2O</text>
</g>
<!-- tournaments.Registration -->
<g id="node11" class="node">
<title>tournaments.Registration</title>
<polygon fill="none" stroke="black" points="66.5,-437 66.5,-473 213.5,-473 213.5,-437 66.5,-437"/>
<text text-anchor="middle" x="140" y="-452.5" font-family="Times,serif" font-size="10.00">tournaments.Registration</text>
</g>
<!-- tournaments.Registration&#45;&gt;teams.Team -->
<g id="edge15" class="edge">
<title>tournaments.Registration&#45;&gt;teams.Team</title>
<path fill="none" stroke="black" d="M213.51,-451.94C264.17,-451.73 332.88,-455.3 391,-472 409.04,-477.18 427.36,-484.67 444.78,-493.05"/>
<text text-anchor="middle" x="344.5" y="-490.8" font-family="Times,serif" font-size="14.00">team</text>
<text text-anchor="middle" x="344.5" y="-475.8" font-family="Times,serif" font-size="14.00">M2O</text>
</g>
</g>
</svg>
