<?xml version="1.0" encoding="UTF-8" standalone="no"?>
<!DOCTYPE svg PUBLIC "-//W3C//DTD SVG 1.1//EN"
 "http://www.w3.org/Graphics/SVG/1.1/DTD/svg11.dtd">
<!-- Generated by graphviz version 2.43.0 (0)
 -->
<!-- Title: ER Pages: 1 -->
<svg width="1440pt" height="2098pt"
 viewBox="0.00 0.00 1440.00 2098.00" xmlns="http://www.w3.org/2000/svg" xmlns:xlink="http://www.w3.org/1999/xlink">
<g id="graph0" class="graph" transform="scale(1 1) rotate(0) translate(4 2094)">
<title>ER</title>
<polygon fill="white" stroke="transparent" points="-4,4 -4,-2094 1436,-2094 1436,4 -4,4"/>
<!-- tournaments.Bracket -->
<g id="node1" class="node">
<title>tournaments.Bracket</title>
<polygon fill="none" stroke="black" points="53.5,-568 53.5,-679 300.5,-679 300.5,-568 53.5,-568"/>
<text text-anchor="middle" x="94.5" y="-626.5" font-family="Times,serif" font-size="10.00">tournaments</text>
<text text-anchor="middle" x="94.5" y="-615.5" font-family="Times,serif" font-size="10.00">Bracket</text>
<polyline fill="none" stroke="black" points="135.5,-568 135.5,-679 "/>
<text text-anchor="start" x="143.5" y="-667" font-family="Times,serif" font-size="10.00">tournament : OneToOneField</text>
<text text-anchor="start" x="143.5" y="-644" font-family="Times,serif" font-size="10.00">is_locked : BooleanField</text>
<text text-anchor="start" x="143.5" y="-621" font-family="Times,serif" font-size="10.00">data : JSONField</text>
<text text-anchor="start" x="143.5" y="-598" font-family="Times,serif" font-size="10.00">created_at : DateTimeField</text>
<text text-anchor="start" x="143.5" y="-575" font-family="Times,serif" font-size="10.00">updated_at : DateTimeField</text>
</g>
<!-- tournaments.CalendarFeedToken -->
<g id="node2" class="node">
<title>tournaments.CalendarFeedToken</title>
<polygon fill="none" stroke="black" points="40.5,-698 40.5,-763 313.5,-763 313.5,-698 40.5,-698"/>
<text text-anchor="middle" x="100" y="-733.5" font-family="Times,serif" font-size="10.00">tournaments</text>
<text text-anchor="middle" x="100" y="-722.5" font-family="Times,serif" font-size="10.00">CalendarFeedToken</text>
<polyline fill="none" stroke="black" points="159.5,-698 159.5,-763 "/>
<text text-anchor="start" x="167.5" y="-751" font-family="Times,serif" font-size="10.00">user : OneToOneField</text>
<text text-anchor="start" x="167.5" y="-728" font-family="Times,serif" font-size="10.00">token : CharField</text>
<text text-anchor="start" x="167.5" y="-705" font-family="Times,serif" font-size="10.00">created_at : DateTimeField</text>
</g>
<!-- tournaments.Match -->
<g id="node3" class="node">
<title>tournaments.Match</title>
<polygon fill="none" stroke="black" points="893.5,-394 893.5,-735 1151.5,-735 1151.5,-394 893.5,-394"/>
<text text-anchor="middle" x="934.5" y="-567.5" font-family="Times,serif" font-size="10.00">tournaments</text>
<text text-anchor="middle" x="934.5" y="-556.5" font-family="Times,serif" font-size="10.00">Match</text>
<polyline fill="none" stroke="black" points="975.5,-394 975.5,-735 "/>
<text text-anchor="start" x="983.5" y="-723" font-family="Times,serif" font-size="10.00">tournament : ForeignKey</text>
<text text-anchor="start" x="983.5" y="-700" font-family="Times,serif" font-size="10.00">round_no : PositiveIntegerField</text>
<text text-anchor="start" x="983.5" y="-677" font-family="Times,serif" font-size="10.00">position : PositiveIntegerField</text>
<text text-anchor="start" x="983.5" y="-654" font-family="Times,serif" font-size="10.00">best_of : PositiveIntegerField</text>
<text text-anchor="start" x="983.5" y="-631" font-family="Times,serif" font-size="10.00">user_a : ForeignKey</text>
<text text-anchor="start" x="983.5" y="-608" font-family="Times,serif" font-size="10.00">team_a : ForeignKey</text>
<text text-anchor="start" x="983.5" y="-585" font-family="Times,serif" font-size="10.00">user_b : ForeignKey</text>
<text text-anchor="start" x="983.5" y="-562" font-family="Times,serif" font-size="10.00">team_b : ForeignKey</text>
<text text-anchor="start" x="983.5" y="-539" font-family="Times,serif" font-size="10.00">score_a : PositiveIntegerField</text>
<text text-anchor="start" x="983.5" y="-516" font-family="Times,serif" font-size="10.00">score_b : PositiveIntegerField</text>
<text text-anchor="start" x="983.5" y="-493" font-family="Times,serif" font-size="10.00">start_at : DateTimeField</text>
<text text-anchor="start" x="983.5" y="-470" font-family="Times,serif" font-size="10.00">winner_user : ForeignKey</text>
<text text-anchor="start" x="983.5" y="-447" font-family="Times,serif" font-size="10.00">winner_team : ForeignKey</text>
<text text-anchor="start" x="983.5" y="-424" font-family="Times,serif" font-size="10.00">state : CharField</text>
<text text-anchor="start" x="983.5" y="-401" font-family="Times,serif" font-size="10.00">created_at : DateTimeField</text>
</g>
<!-- user_profile.UserProfile -->
<g id="node15" class="node">
<title>user_profile.UserProfile</title>
<polygon fill="none" stroke="black" points="1295,-651.5 1295,-687.5 1432,-687.5 1432,-651.5 1295,-651.5"/>
<text text-anchor="middle" x="1363.5" y="-667" font-family="Times,serif" font-size="10.00">user_profile.UserProfile</text>
</g>
<!-- tournaments.Match&#45;&gt;user_profile.UserProfile -->
<g id="edge10" class="edge">
<title>tournaments.Match&#45;&gt;user_profile.UserProfile</title>
<path fill="none" stroke="black" d="M1151.51,-661.53C1162.14,-666.66 1173.03,-671.1 1184,-674.5 1219.54,-685.51 1260.98,-685.1 1294.98,-681.55"/>
<text text-anchor="middle" x="1230.5" y="-702.3" font-family="Times,serif" font-size="14.00">user_a</text>
<text text-anchor="middle" x="1230.5" y="-687.3" font-family="Times,serif" font-size="14.00">M2O</text>
</g>
<!-- tournaments.Match&#45;&gt;user_profile.UserProfile -->
<g id="edge12" class="edge">
<title>tournaments.Match&#45;&gt;user_profile.UserProfile</title>
<path fill="none" stroke="black" d="M1151.77,-611.83C1162.61,-615.29 1173.46,-618.57 1184,-621.5 1224.64,-632.81 1236.28,-629.48 1277,-640.5 1288.65,-643.65 1301.03,-647.53 1312.64,-651.42"/>
<text text-anchor="middle" x="1230.5" y="-659.3" font-family="Times,serif" font-size="14.00">user_b</text>
<text text-anchor="middle" x="1230.5" y="-644.3" font-family="Times,serif" font-size="14.00">M2O</text>
</g>
<!-- tournaments.Match&#45;&gt;user_profile.UserProfile -->
<g id="edge14" class="edge">
<title>tournaments.Match&#45;&gt;user_profile.UserProfile</title>
<path fill="none" stroke="black" d="M1151.84,-568.36C1202.68,-571.5 1254.38,-577.19 1277,-587.5 1308.07,-601.65 1334.8,-631.93 1349.75,-651.47"/>
<text text-anchor="middle" x="1230.5" y="-606.3" font-family="Times,serif" font-size="14.00">winner_user</text>
<text text-anchor="middle" x="1230.5" y="-591.3" font-family="Times,serif" font-size="14.00">M2O</text>
</g>
<!-- teams.Team -->
<g id="node16" class="node">
<title>teams.Team</title>
<polygon fill="none" stroke="black" points="1324.5,-440.5 1324.5,-476.5 1402.5,-476.5 1402.5,-440.5 1324.5,-440.5"/>
<text text-anchor="middle" x="1363.5" y="-456" font-family="Times,serif" font-size="10.00">teams.Team</text>
</g>
<!-- tournaments.Match&#45;&gt;teams.Team -->
<g id="edge11" class="edge">
<title>tournaments.Match&#45;&gt;teams.Team</title>
<path fill="none" stroke="black" d="M1151.58,-542.03C1208.08,-531.69 1264.56,-520.61 1277,-515.5 1300.44,-505.88 1324.18,-489.4 1340.68,-476.62"/>
<text text-anchor="middle" x="1230.5" y="-553.3" font-family="Times,serif" font-size="14.00">team_a</text>
<text text-anchor="middle" x="1230.5" y="-538.3" font-family="Times,serif" font-size="14.00">M2O</text>
</g>
<!-- tournaments.Match&#45;&gt;teams.Team -->
<g id="edge13" class="edge">
<title>tournaments.Match&#45;&gt;teams.Team</title>
<path fill="none" stroke="black" d="M1151.94,-493.23C1162.6,-488.81 1173.37,-484.82 1184,-481.5 1230.97,-466.83 1287.71,-461.51 1324.42,-459.58"/>
<text text-anchor="middle" x="1230.5" y="-500.3" font-family="Times,serif" font-size="14.00">team_b</text>
<text text-anchor="middle" x="1230.5" y="-485.3" font-family="Times,serif" font-size="14.00">M2O</text>
</g>
<!-- tournaments.Match&#45;&gt;teams.Team -->
<g id="edge15" class="edge">
<title>tournaments.Match&#45;&gt;teams.Team</title>
<path fill="none" stroke="black" d="M1151.96,-444.47C1162.34,-438.59 1173.05,-433.49 1184,-429.5 1230.46,-412.56 1287.31,-427.44 1324.19,-441.4"/>
<text text-anchor="middle" x="1230.5" y="-448.3" font-family="Times,serif" font-size="14.00">winner_team</text>
<text text-anchor="middle" x="1230.5" y="-433.3" font-family="Times,serif" font-size="14.00">M2O</text>
</g>
<!-- tournaments.MatchAttendance -->
<g id="node4" class="node">
<title>tournaments.MatchAttendance</title>
<polygon fill="none" stroke="black" points="468.5,-499.5 468.5,-633.5 733.5,-633.5 733.5,-499.5 468.5,-499.5"/>
<text text-anchor="middle" x="522" y="-569.5" font-family="Times,serif" font-size="10.00">tournaments</text>
<text text-anchor="middle" x="522" y="-558.5" font-family="Times,serif" font-size="10.00">MatchAttendance</text>
<polyline fill="none" stroke="black" points="575.5,-499.5 575.5,-633.5 "/>
<text text-anchor="start" x="583.5" y="-621.5" font-family="Times,serif" font-size="10.00">user : ForeignKey</text>
<text text-anchor="start" x="583.5" y="-598.5" font-family="Times,serif" font-size="10.00">match : ForeignKey</text>
<text text-anchor="start" x="583.5" y="-575.5" font-family="Times,serif" font-size="10.00">status : CharField</text>
<text text-anchor="start" x="583.5" y="-552.5" font-family="Times,serif" font-size="10.00">note : CharField</text>
<text text-anchor="start" x="583.5" y="-529.5" font-family="Times,serif" font-size="10.00">updated_at : DateTimeField</text>
<text text-anchor="start" x="583.5" y="-506.5" font-family="Times,serif" font-size="10.00">created_at : DateTimeField</text>
</g>
<!-- tournaments.MatchAttendance&#45;&gt;tournaments.Match -->
<g id="edge3" class="edge">
<title>tournaments.MatchAttendance&#45;&gt;tournaments.Match</title>
<path fill="none" stroke="black" d="M733.58,-565.87C784.52,-565.63 842.64,-565.35 893.26,-565.11"/>
<text text-anchor="middle" x="818.5" y="-584.3" font-family="Times,serif" font-size="14.00">match</text>
<text text-anchor="middle" x="818.5" y="-569.3" font-family="Times,serif" font-size="14.00">M2O</text>
</g>
<!-- tournaments.MatchComment -->
<g id="node5" class="node">
<title>tournaments.MatchComment</title>
<polygon fill="none" stroke="black" points="475,-652.5 475,-740.5 727,-740.5 727,-652.5 475,-652.5"/>
<text text-anchor="middle" x="524" y="-699.5" font-family="Times,serif" font-size="10.00">tournaments</text>
<text text-anchor="middle" x="524" y="-688.5" font-family="Times,serif" font-size="10.00">MatchComment</text>
<polyline fill="none" stroke="black" points="573,-652.5 573,-740.5 "/>
<text text-anchor="start" x="581" y="-728.5" font-family="Times,serif" font-size="10.00">match : ForeignKey</text>
<text text-anchor="start" x="581" y="-705.5" font-family="Times,serif" font-size="10.00">author : ForeignKey</text>
<text text-anchor="start" x="581" y="-682.5" font-family="Times,serif" font-size="10.00">body : TextField</text>
<text text-anchor="start" x="581" y="-659.5" font-family="Times,serif" font-size="10.00">created_at : DateTimeField</text>
</g>
<!-- tournaments.MatchComment&#45;&gt;tournaments.Match -->
<g id="edge7" class="edge">
<title>tournaments.MatchComment&#45;&gt;tournaments.Match</title>
<path fill="none" stroke="black" d="M727.01,-657.16C779.53,-640.64 840.57,-621.43 893.42,-604.8"/>
<text text-anchor="middle" x="818.5" y="-656.3" font-family="Times,serif" font-size="14.00">match</text>
<text text-anchor="middle" x="818.5" y="-641.3" font-family="Times,serif" font-size="14.00">M2O</text>
</g>
<!-- tournaments.MatchComment&#45;&gt;user_profile.UserProfile -->
<g id="edge8" class="edge">
<title>tournaments.MatchComment&#45;&gt;user_profile.UserProfile</title>
<path fill="none" stroke="black" d="M727.23,-722.89C774.56,-731.62 829.04,-740.2 879,-744.5 1006.09,-755.43 1039.35,-759.68 1166,-744.5 1216.41,-738.46 1229.76,-736.1 1277,-717.5 1297.27,-709.52 1318.65,-697.52 1334.96,-687.51"/>
<text text-anchor="middle" x="1022.5" y="-772.3" font-family="Times,serif" font-size="14.00">author</text>
<text text-anchor="middle" x="1022.5" y="-757.3" font-family="Times,serif" font-size="14.00">M2O</text>
</g>
<!-- tournaments.MatchDispute -->
<g id="node6" class="node">
<title>tournaments.MatchDispute</title>
<polygon fill="none" stroke="black" points="477,-759.5 477,-939.5 725,-939.5 725,-759.5 477,-759.5"/>
<text text-anchor="middle" x="521.5" y="-852.5" font-family="Times,serif" font-size="10.00">tournaments</text>
<text text-anchor="middle" x="521.5" y="-841.5" font-family="Times,serif" font-size="10.00">MatchDispute</text>
<polyline fill="none" stroke="black" points="566,-759.5 566,-939.5 "/>
<text text-anchor="start" x="574" y="-927.5" font-family="Times,serif" font-size="10.00">match : ForeignKey</text>
<text text-anchor="start" x="574" y="-904.5" font-family="Times,serif" font-size="10.00">opened_by : ForeignKey</text>
<text text-anchor="start" x="574" y="-881.5" font-family="Times,serif" font-size="10.00">resolver : ForeignKey</text>
<text text-anchor="start" x="574" y="-858.5" font-family="Times,serif" font-size="10.00">is_open : BooleanField</text>
<text text-anchor="start" x="574" y="-835.5" font-family="Times,serif" font-size="10.00">status : CharField</text>
<text text-anchor="start" x="574" y="-812.5" font-family="Times,serif" font-size="10.00">reason : TextField</text>
<text text-anchor="start" x="574" y="-789.5" font-family="Times,serif" font-size="10.00">created_at : DateTimeField</text>
<text text-anchor="start" x="574" y="-766.5" font-family="Times,serif" font-size="10.00">resolved_at : DateTimeField</text>
</g>
<!-- tournaments.MatchDispute&#45;&gt;tournaments.Match -->
<g id="edge4" class="edge">
<title>tournaments.MatchDispute&#45;&gt;tournaments.Match</title>
<path fill="none" stroke="black" d="M725.42,-771.97C736.48,-764.78 747.47,-757.55 758,-750.5 802.55,-720.67 850.64,-687.13 893.38,-656.83"/>
<text text-anchor="middle" x="818.5" y="-754.3" font-family="Times,serif" font-size="14.00">match</text>
<text text-anchor="middle" x="818.5" y="-739.3" font-family="Times,serif" font-size="14.00">M2O</text>
</g>
<!-- tournaments.MatchDispute&#45;&gt;user_profile.UserProfile -->
<g id="edge5" class="edge">
<title>tournaments.MatchDispute&#45;&gt;user_profile.UserProfile</title>
<path fill="none" stroke="black" d="M725.23,-845.44C840.62,-839.41 1017.1,-824.48 1166,-787.5 1217.5,-774.71 1231.63,-771.03 1277,-743.5 1303.01,-727.71 1328.87,-703.92 1345.22,-687.6"/>
<text text-anchor="middle" x="1022.5" y="-851.3" font-family="Times,serif" font-size="14.00">opened_by</text>
<text text-anchor="middle" x="1022.5" y="-836.3" font-family="Times,serif" font-size="14.00">M2O</text>
</g>
<!-- tournaments.MatchDisputeEvidence -->
<g id="node7" class="node">
<title>tournaments.MatchDisputeEvidence</title>
<polygon fill="none" stroke="black" points="32,-782.5 32,-916.5 322,-916.5 322,-782.5 32,-782.5"/>
<text text-anchor="middle" x="100" y="-852.5" font-family="Times,serif" font-size="10.00">tournaments</text>
<text text-anchor="middle" x="100" y="-841.5" font-family="Times,serif" font-size="10.00">MatchDisputeEvidence</text>
<polyline fill="none" stroke="black" points="168,-782.5 168,-916.5 "/>
<text text-anchor="start" x="176" y="-904.5" font-family="Times,serif" font-size="10.00">dispute : ForeignKey</text>
<text text-anchor="start" x="176" y="-881.5" font-family="Times,serif" font-size="10.00">file : FileField</text>
<text text-anchor="start" x="176" y="-858.5" font-family="Times,serif" font-size="10.00">content_type : CharField</text>
<text text-anchor="start" x="176" y="-835.5" font-family="Times,serif" font-size="10.00">size : PositiveIntegerField</text>
<text text-anchor="start" x="176" y="-812.5" font-family="Times,serif" font-size="10.00">uploaded_by : ForeignKey</text>
<text text-anchor="start" x="176" y="-789.5" font-family="Times,serif" font-size="10.00">created_at : DateTimeField</text>
</g>
<!-- tournaments.MatchDisputeEvidence&#45;&gt;tournaments.MatchDispute -->
<g id="edge9" class="edge">
<title>tournaments.MatchDisputeEvidence&#45;&gt;tournaments.MatchDispute</title>
<path fill="none" stroke="black" d="M322.05,-849.5C372.43,-849.5 428.49,-849.5 476.99,-849.5"/>
<text text-anchor="middle" x="399" y="-868.3" font-family="Times,serif" font-size="14.00">dispute</text>
<text text-anchor="middle" x="399" y="-853.3" font-family="Times,serif" font-size="14.00">M2O</text>
</g>
<!-- tournaments.MatchEvent -->
<g id="node8" class="node">
<title>tournaments.MatchEvent</title>
<polygon fill="none" stroke="black" points="483,-392.5 483,-480.5 719,-480.5 719,-392.5 483,-392.5"/>
<text text-anchor="middle" x="524" y="-439.5" font-family="Times,serif" font-size="10.00">tournaments</text>
<text text-anchor="middle" x="524" y="-428.5" font-family="Times,serif" font-size="10.00">MatchEvent</text>
<polyline fill="none" stroke="black" points="565,-392.5 565,-480.5 "/>
<text text-anchor="start" x="573" y="-468.5" font-family="Times,serif" font-size="10.00">match : ForeignKey</text>
<text text-anchor="start" x="573" y="-445.5" font-family="Times,serif" font-size="10.00">type : CharField</text>
<text text-anchor="start" x="573" y="-422.5" font-family="Times,serif" font-size="10.00">payload : JSONField</text>
<text text-anchor="start" x="573" y="-399.5" font-family="Times,serif" font-size="10.00">created_at : DateTimeField</text>
</g>
<!-- tournaments.MatchEvent&#45;&gt;tournaments.Match -->
<g id="edge6" class="edge">
<title>tournaments.MatchEvent&#45;&gt;tournaments.Match</title>
<path fill="none" stroke="black" d="M719.13,-472.24C773.31,-488.77 837.81,-508.45 893.29,-525.38"/>
<text text-anchor="middle" x="818.5" y="-530.3" font-family="Times,serif" font-size="14.00">match</text>
<text text-anchor="middle" x="818.5" y="-515.3" font-family="Times,serif" font-size="14.00">M2O</text>
</g>
<!-- tournaments.PaymentVerification -->
<g id="node9" class="node">
<title>tournaments.PaymentVerification</title>
<polygon fill="none" stroke="black" points="444,-0.5 444,-318.5 758,-318.5 758,-0.5 444,-0.5"/>
<text text-anchor="middle" x="503" y="-162.5" font-family="Times,serif" font-size="10.00">tournaments</text>
<text text-anchor="middle" x="503" y="-151.5" font-family="Times,serif" font-size="10.00">PaymentVerification</text>
<polyline fill="none" stroke="black" points="562,-0.5 562,-318.5 "/>
<text text-anchor="start" x="570" y="-306.5" font-family="Times,serif" font-size="10.00">registration : OneToOneField</text>
<text text-anchor="start" x="570" y="-283.5" font-family="Times,serif" font-size="10.00">method : CharField</text>
<text text-anchor="start" x="570" y="-260.5" font-family="Times,serif" font-size="10.00">payer_account_number : CharField</text>
<text text-anchor="start" x="570" y="-237.5" font-family="Times,serif" font-size="10.00">transaction_id : CharField</text>
<text text-anchor="start" x="570" y="-214.5" font-family="Times,serif" font-size="10.00">amount_bdt : PositiveIntegerField</text>
<text text-anchor="start" x="570" y="-191.5" font-family="Times,serif" font-size="10.00">note : CharField</text>
<text text-anchor="start" x="570" y="-168.5" font-family="Times,serif" font-size="10.00">proof_image : ImageField</text>
<text text-anchor="start" x="570" y="-145.5" font-family="Times,serif" font-size="10.00">status : CharField</text>
<text text-anchor="start" x="570" y="-122.5" font-family="Times,serif" font-size="10.00">verified_by : ForeignKey</text>
<text text-anchor="start" x="570" y="-99.5" font-family="Times,serif" font-size="10.00">verified_at : DateTimeField</text>
<text text-anchor="start" x="570" y="-76.5" font-family="Times,serif" font-size="10.00">reject_reason : TextField</text>
<text text-anchor="start" x="570" y="-53.5" font-family="Times,serif" font-size="10.00">last_action_reason : CharField</text>
<text text-anchor="start" x="570" y="-30.5" font-family="Times,serif" font-size="10.00">created_at : DateTimeField</text>
<text text-anchor="start" x="570" y="-7.5" font-family="Times,serif" font-size="10.00">updated_at : DateTimeField</text>
</g>
<!-- tournaments.Registration -->
<g id="node11" class="node">
<title>tournaments.Registration</title>
<polygon fill="none" stroke="black" points="879,-126 879,-375 1166,-375 1166,-126 879,-126"/>
<text text-anchor="middle" x="920" y="-253.5" font-family="Times,serif" font-size="10.00">tournaments</text>
<text text-anchor="middle" x="920" y="-242.5" font-family="Times,serif" font-size="10.00">Registration</text>
<polyline fill="none" stroke="black" points="961,-126 961,-375 "/>
<text text-anchor="start" x="969" y="-363" font-family="Times,serif" font-size="10.00">tournament : ForeignKey</text>
<text text-anchor="start" x="969" y="-340" font-family="Times,serif" font-size="10.00">user : ForeignKey</text>
<text text-anchor="start" x="969" y="-317" font-family="Times,serif" font-size="10.00">team : ForeignKey</text>
<text text-anchor="start" x="969" y="-294" font-family="Times,serif" font-size="10.00">payment_method : CharField</text>
<text text-anchor="start" x="969" y="-271" font-family="Times,serif" font-size="10.00">payment_sender : CharField</text>
<text text-anchor="start" x="969" y="-248" font-family="Times,serif" font-size="10.00">payment_reference : CharField</text>
<text text-anchor="start" x="969" y="-225" font-family="Times,serif" font-size="10.00">payment_status : CharField</text>
<text text-anchor="start" x="969" y="-202" font-family="Times,serif" font-size="10.00">status : CharField</text>
<text text-anchor="start" x="969" y="-179" font-family="Times,serif" font-size="10.00">payment_verified_by : ForeignKey</text>
<text text-anchor="start" x="969" y="-156" font-family="Times,serif" font-size="10.00">payment_verified_at : DateTimeField</text>
<text text-anchor="start" x="969" y="-133" font-family="Times,serif" font-size="10.00">created_at : DateTimeField</text>
</g>
<!-- tournaments.PaymentVerification&#45;&gt;tournaments.Registration -->
<g id="edge16" class="edge">
<title>tournaments.PaymentVerification&#45;&gt;tournaments.Registration</title>
<path fill="none" stroke="black" stroke-width="2" d="M758.21,-193.39C797.69,-201.95 839.89,-211.1 878.68,-219.52"/>
<text text-anchor="middle" x="818.5" y="-232.3" font-family="Times,serif" font-size="14.00">registration</text>
<text text-anchor="middle" x="818.5" y="-217.3" font-family="Times,serif" font-size="14.00">O2O</text>
</g>
<!-- tournaments.PinnedTournament -->
<g id="node10" class="node">
<title>tournaments.PinnedTournament</title>
<polygon fill="none" stroke="black" points="37.5,-936 37.5,-1001 316.5,-1001 316.5,-936 37.5,-936"/>
<text text-anchor="middle" x="95" y="-971.5" font-family="Times,serif" font-size="10.00">tournaments</text>
<text text-anchor="middle" x="95" y="-960.5" font-family="Times,serif" font-size="10.00">PinnedTournament</text>
<polyline fill="none" stroke="black" points="152.5,-936 152.5,-1001 "/>
<text text-anchor="start" x="160.5" y="-989" font-family="Times,serif" font-size="10.00">user : ForeignKey</text>
<text text-anchor="start" x="160.5" y="-966" font-family="Times,serif" font-size="10.00">tournament_id : IntegerField</text>
<text text-anchor="start" x="160.5" y="-943" font-family="Times,serif" font-size="10.00">created_at : DateTimeField</text>
</g>
<!-- tournaments.Registration&#45;&gt;user_profile.UserProfile -->
<g id="edge17" class="edge">
<title>tournaments.Registration&#45;&gt;user_profile.UserProfile</title>
<path fill="none" stroke="black" d="M1166.22,-334.94C1172.2,-338.21 1178.15,-341.41 1184,-344.5 1224.43,-365.85 1249.14,-352.24 1277,-388.5 1303.99,-423.61 1283.29,-443.79 1295,-486.5 1311.96,-548.39 1340.8,-618.93 1354.64,-651.4"/>
<text text-anchor="middle" x="1230.5" y="-407.3" font-family="Times,serif" font-size="14.00">user</text>
<text text-anchor="middle" x="1230.5" y="-392.3" font-family="Times,serif" font-size="14.00">M2O</text>
</g>
<!-- tournaments.Registration&#45;&gt;teams.Team -->
<g id="edge18" class="edge">
<title>tournaments.Registration&#45;&gt;teams.Team</title>
<path fill="none" stroke="black" d="M1166.04,-266.06C1204.8,-275.5 1244.9,-290.54 1277,-314.5 1320.81,-347.19 1346.38,-409.53 1356.88,-440.34"/>
<text text-anchor="middle" x="1230.5" y="-333.3" font-family="Times,serif" font-size="14.00">team</text>
<text text-anchor="middle" x="1230.5" y="-318.3" font-family="Times,serif" font-size="14.00">M2O</text>
</g>
<!-- tournaments.SavedMatchFilter -->
<g id="node12" class="node">
<title>tournaments.SavedMatchFilter</title>
<polygon fill="none" stroke="black" points="41.5,-1020.5 41.5,-1246.5 312.5,-1246.5 312.5,-1020.5 41.5,-1020.5"/>
<text text-anchor="middle" x="95" y="-1136.5" font-family="Times,serif" font-size="10.00">tournaments</text>
<text text-anchor="middle" x="95" y="-1125.5" font-family="Times,serif" font-size="10.00">SavedMatchFilter</text>
<polyline fill="none" stroke="black" points="148.5,-1020.5 148.5,-1246.5 "/>
<text text-anchor="start" x="156.5" y="-1234.5" font-family="Times,serif" font-size="10.00">user : ForeignKey</text>
<text text-anchor="start" x="156.5" y="-1211.5" font-family="Times,serif" font-size="10.00">name : CharField</text>
<text text-anchor="start" x="156.5" y="-1188.5" font-family="Times,serif" font-size="10.00">is_default : BooleanField</text>
<text text-anchor="start" x="156.5" y="-1165.5" font-family="Times,serif" font-size="10.00">game : CharField</text>
<text text-anchor="start" x="156.5" y="-1142.5" font-family="Times,serif" font-size="10.00">state : CharField</text>
<text text-anchor="start" x="156.5" y="-1119.5" font-family="Times,serif" font-size="10.00">tournament_id : IntegerField</text>
<text text-anchor="start" x="156.5" y="-1096.5" font-family="Times,serif" font-size="10.00">start_date : DateField</text>
<text text-anchor="start" x="156.5" y="-1073.5" font-family="Times,serif" font-size="10.00">end_date : DateField</text>
<text text-anchor="start" x="156.5" y="-1050.5" font-family="Times,serif" font-size="10.00">created_at : DateTimeField</text>
<text text-anchor="start" x="156.5" y="-1027.5" font-family="Times,serif" font-size="10.00">updated_at : DateTimeField</text>
</g>
<!-- tournaments.TournamentSettings -->
<g id="node13" class="node">
<title>tournaments.TournamentSettings</title>
<polygon fill="none" stroke="black" points="0,-1265.5 0,-2089.5 354,-2089.5 354,-1265.5 0,-1265.5"/>
<text text-anchor="middle" x="60.5" y="-1680.5" font-family="Times,serif" font-size="10.00">tournaments</text>
<text text-anchor="middle" x="60.5" y="-1669.5" font-family="Times,serif" font-size="10.00">TournamentSettings</text>
<polyline fill="none" stroke="black" points="121,-1265.5 121,-2089.5 "/>
<text text-anchor="start" x="129" y="-2077.5" font-family="Times,serif" font-size="10.00">tournament : OneToOneField</text>
<text text-anchor="start" x="129" y="-2054.5" font-family="Times,serif" font-size="10.00">tournament_type : CharField</text>
<text text-anchor="start" x="129" y="-2031.5" font-family="Times,serif" font-size="10.00">description : TextField</text>
<text text-anchor="start" x="129" y="-2008.5" font-family="Times,serif" font-size="10.00">start_at : DateTimeField</text>
<text text-anchor="start" x="129" y="-1985.5" font-family="Times,serif" font-size="10.00">end_at : DateTimeField</text>
<text text-anchor="start" x="129" y="-1962.5" font-family="Times,serif" font-size="10.00">reg_open_at : DateTimeField</text>
<text text-anchor="start" x="129" y="-1939.5" font-family="Times,serif" font-size="10.00">reg_close_at : DateTimeField</text>
<text text-anchor="start" x="129" y="-1916.5" font-family="Times,serif" font-size="10.00">min_team_size : PositiveSmallIntegerField</text>
<text text-anchor="start" x="129" y="-1893.5" font-family="Times,serif" font-size="10.00">max_team_size : PositiveSmallIntegerField</text>
<text text-anchor="start" x="129" y="-1870.5" font-family="Times,serif" font-size="10.00">entry_fee_bdt : PositiveIntegerField</text>
<text text-anchor="start" x="129" y="-1847.5" font-family="Times,serif" font-size="10.00">prize_pool_bdt : PositiveIntegerField</text>
<text text-anchor="start" x="129" y="-1824.5" font-family="Times,serif" font-size="10.00">prize_distribution_text : TextField</text>
<text text-anchor="start" x="129" y="-1801.5" font-family="Times,serif" font-size="10.00">prize_type : CharField</text>
<text text-anchor="start" x="129" y="-1778.5" font-family="Times,serif" font-size="10.00">banner : ImageField</text>
<text text-anchor="start" x="129" y="-1755.5" font-family="Times,serif" font-size="10.00">rules_pdf : FileField</text>
<text text-anchor="start" x="129" y="-1732.5" font-family="Times,serif" font-size="10.00">stream_facebook_url : URLField</text>
<text text-anchor="start" x="129" y="-1709.5" font-family="Times,serif" font-size="10.00">stream_youtube_url : URLField</text>
<text text-anchor="start" x="129" y="-1686.5" font-family="Times,serif" font-size="10.00">discord_url : URLField</text>
<text text-anchor="start" x="129" y="-1663.5" font-family="Times,serif" font-size="10.00">invite_only : BooleanField</text>
<text text-anchor="start" x="129" y="-1640.5" font-family="Times,serif" font-size="10.00">auto_check_in : BooleanField</text>
<text text-anchor="start" x="129" y="-1617.5" font-family="Times,serif" font-size="10.00">bracket_visibility : CharField</text>
<text text-anchor="start" x="129" y="-1594.5" font-family="Times,serif" font-size="10.00">auto_schedule : BooleanField</text>
<text text-anchor="start" x="129" y="-1571.5" font-family="Times,serif" font-size="10.00">custom_format_json : JSONField</text>
<text text-anchor="start" x="129" y="-1548.5" font-family="Times,serif" font-size="10.00">payment_gateway_enabled : BooleanField</text>
<text text-anchor="start" x="129" y="-1525.5" font-family="Times,serif" font-size="10.00">region_lock : BooleanField</text>
<text text-anchor="start" x="129" y="-1502.5" font-family="Times,serif" font-size="10.00">check_in_open_mins : PositiveIntegerField</text>
<text text-anchor="start" x="129" y="-1479.5" font-family="Times,serif" font-size="10.00">check_in_close_mins : PositiveIntegerField</text>
<text text-anchor="start" x="129" y="-1456.5" font-family="Times,serif" font-size="10.00">bkash_receive_type : CharField</text>
<text text-anchor="start" x="129" y="-1433.5" font-family="Times,serif" font-size="10.00">bkash_receive_number : CharField</text>
<text text-anchor="start" x="129" y="-1410.5" font-family="Times,serif" font-size="10.00">nagad_receive_type : CharField</text>
<text text-anchor="start" x="129" y="-1387.5" font-family="Times,serif" font-size="10.00">nagad_receive_number : CharField</text>
<text text-anchor="start" x="129" y="-1364.5" font-family="Times,serif" font-size="10.00">rocket_receive_type : CharField</text>
<text text-anchor="start" x="129" y="-1341.5" font-family="Times,serif" font-size="10.00">rocket_receive_number : CharField</text>
<text text-anchor="start" x="129" y="-1318.5" font-family="Times,serif" font-size="10.00">bank_instructions : TextField</text>
<text text-anchor="start" x="129" y="-1295.5" font-family="Times,serif" font-size="10.00">created_at : DateTimeField</text>
<text text-anchor="start" x="129" y="-1272.5" font-family="Times,serif" font-size="10.00">updated_at : DateTimeField</text>
</g>
<!-- economy.DeltaCrownTransaction -->
<g id="node14" class="node">
<title>economy.DeltaCrownTransaction</title>
<polygon fill="none" stroke="black" points="509,-337.5 509,-373.5 693,-373.5 693,-337.5 509,-337.5"/>
<text text-anchor="middle" x="601" y="-353" font-family="Times,serif" font-size="10.00">economy.DeltaCrownTransaction</text>
</g>
<!-- economy.DeltaCrownTransaction&#45;&gt;tournaments.Match -->
<g id="edge2" class="edge">
<title>economy.DeltaCrownTransaction&#45;&gt;tournaments.Match</title>
<path fill="none" stroke="black" d="M693.35,-365.22C715.05,-369.34 737.77,-375.19 758,-383.5 805.1,-402.85 852.29,-431.58 893.45,-460.48"/>
<text text-anchor="middle" x="818.5" y="-455.3" font-family="Times,serif" font-size="14.00">match</text>
<text text-anchor="middle" x="818.5" y="-440.3" font-family="Times,serif" font-size="14.00">M2O</text>
</g>
<!-- economy.DeltaCrownTransaction&#45;&gt;tournaments.Registration -->
<g id="edge1" class="edge">
<title>economy.DeltaCrownTransaction&#45;&gt;tournaments.Registration</title>
<path fill="none" stroke="black" d="M693.24,-344.32C714.83,-340.26 737.52,-334.8 758,-327.5 766.62,-324.43 767.52,-320.95 776,-317.5 808.53,-304.25 844.53,-292.77 878.71,-283.24"/>
<text text-anchor="middle" x="818.5" y="-336.3" font-family="Times,serif" font-size="14.00">registration</text>
<text text-anchor="middle" x="818.5" y="-321.3" font-family="Times,serif" font-size="14.00">M2O</text>
</g>
</g>
</svg>
