<?xml version="1.0" encoding="UTF-8" standalone="no"?>
<!DOCTYPE svg PUBLIC "-//W3C//DTD SVG 1.1//EN"
 "http://www.w3.org/Graphics/SVG/1.1/DTD/svg11.dtd">
<!-- Generated by graphviz version 2.43.0 (0)
 -->
<!-- Title: ER Pages: 1 -->
<svg width="543pt" height="758pt"
 viewBox="0.00 0.00 543.00 757.50" xmlns="http://www.w3.org/2000/svg" xmlns:xlink="http://www.w3.org/1999/xlink">
<g id="graph0" class="graph" transform="scale(1 1) rotate(0) translate(4 753.5)">
<title>ER</title>
<polygon fill="white" stroke="transparent" points="-4,4 -4,-753.5 539,-753.5 539,4 -4,4"/>
<!-- user_profile.UserProfile -->
<g id="node1" class="node">
<title>user_profile.UserProfile</title>
<polygon fill="none" stroke="black" points="291,-180.5 291,-544.5 535,-544.5 535,-180.5 291,-180.5"/>
<text text-anchor="middle" x="329.5" y="-365.5" font-family="Times,serif" font-size="10.00">user_profile</text>
<text text-anchor="middle" x="329.5" y="-354.5" font-family="Times,serif" font-size="10.00">UserProfile</text>
<polyline fill="none" stroke="black" points="368,-180.5 368,-544.5 "/>
<text text-anchor="start" x="376" y="-532.5" font-family="Times,serif" font-size="10.00">user : OneToOneField</text>
<text text-anchor="start" x="376" y="-509.5" font-family="Times,serif" font-size="10.00">display_name : CharField</text>
<text text-anchor="start" x="376" y="-486.5" font-family="Times,serif" font-size="10.00">region : CharField</text>
<text text-anchor="start" x="376" y="-463.5" font-family="Times,serif" font-size="10.00">avatar : ImageField</text>
<text text-anchor="start" x="376" y="-440.5" font-family="Times,serif" font-size="10.00">bio : TextField</text>
<text text-anchor="start" x="376" y="-417.5" font-family="Times,serif" font-size="10.00">youtube_link : URLField</text>
<text text-anchor="start" x="376" y="-394.5" font-family="Times,serif" font-size="10.00">twitch_link : URLField</text>
<text text-anchor="start" x="376" y="-371.5" font-family="Times,serif" font-size="10.00">preferred_games : JSONField</text>
<text text-anchor="start" x="376" y="-348.5" font-family="Times,serif" font-size="10.00">discord_id : CharField</text>
<text text-anchor="start" x="376" y="-325.5" font-family="Times,serif" font-size="10.00">riot_id : CharField</text>
<text text-anchor="start" x="376" y="-302.5" font-family="Times,serif" font-size="10.00">efootball_id : CharField</text>
<text text-anchor="start" x="376" y="-279.5" font-family="Times,serif" font-size="10.00">created_at : DateTimeField</text>
<text text-anchor="start" x="376" y="-256.5" font-family="Times,serif" font-size="10.00">is_private : BooleanField</text>
<text text-anchor="start" x="376" y="-233.5" font-family="Times,serif" font-size="10.00">show_email : BooleanField</text>
<text text-anchor="start" x="376" y="-210.5" font-family="Times,serif" font-size="10.00">show_phone : BooleanField</text>
<text text-anchor="start" x="376" y="-187.5" font-family="Times,serif" font-size="10.00">show_socials : BooleanField</text>
</g>
<!-- ecommerce.Order -->
<g id="node2" class="node">
<title>ecommerce.Order</title>
<polygon fill="none" stroke="black" points="29.5,-696.5 29.5,-732.5 137.5,-732.5 137.5,-696.5 29.5,-696.5"/>
<text text-anchor="middle" x="83.5" y="-712" font-family="Times,serif" font-size="10.00">ecommerce.Order</text>
</g>
<!-- ecommerce.Order&#45;&gt;user_profile.UserProfile -->
<g id="edge1" class="edge">
<title>ecommerce.Order&#45;&gt;user_profile.UserProfile</title>
<path fill="none" stroke="black" d="M137.75,-720.78C178.72,-722.71 234.64,-718.68 273,-689.5 319.89,-653.83 351.13,-599.27 371.89,-544.87"/>
<text text-anchor="middle" x="229" y="-738.3" font-family="Times,serif" font-size="14.00">user</text>
<text text-anchor="middle" x="229" y="-723.3" font-family="Times,serif" font-size="14.00">M2O</text>
</g>
<!-- economy.DeltaCrownWallet -->
<g id="node3" class="node">
<title>economy.DeltaCrownWallet</title>
<polygon fill="none" stroke="black" points="6,-641.5 6,-677.5 161,-677.5 161,-641.5 6,-641.5"/>
<text text-anchor="middle" x="83.5" y="-657" font-family="Times,serif" font-size="10.00">economy.DeltaCrownWallet</text>
</g>
<!-- economy.DeltaCrownWallet&#45;&gt;user_profile.UserProfile -->
<g id="edge2" class="edge">
<title>economy.DeltaCrownWallet&#45;&gt;user_profile.UserProfile</title>
<path fill="none" stroke="black" stroke-width="2" d="M161.29,-657.8C205.23,-655.45 255.1,-650 273,-637.5 306.34,-614.23 332.13,-580.53 351.92,-544.66"/>
<text text-anchor="middle" x="229" y="-674.3" font-family="Times,serif" font-size="14.00">profile</text>
<text text-anchor="middle" x="229" y="-659.3" font-family="Times,serif" font-size="14.00">O2O</text>
</g>
<!-- teams.EfootballTeamPreset -->
<g id="node4" class="node">
<title>teams.EfootballTeamPreset</title>
<polygon fill="none" stroke="black" points="5.5,-586.5 5.5,-622.5 161.5,-622.5 161.5,-586.5 5.5,-586.5"/>
<text text-anchor="middle" x="83.5" y="-602" font-family="Times,serif" font-size="10.00">teams.EfootballTeamPreset</text>
</g>
<!-- teams.EfootballTeamPreset&#45;&gt;user_profile.UserProfile -->
<g id="edge3" class="edge">
<title>teams.EfootballTeamPreset&#45;&gt;user_profile.UserProfile</title>
<path fill="none" stroke="black" d="M161.61,-606.73C197.91,-604.42 240.3,-596.58 273,-575.5 286.36,-566.89 298.71,-556.48 310.07,-544.96"/>
<text text-anchor="middle" x="229" y="-622.3" font-family="Times,serif" font-size="14.00">profile</text>
<text text-anchor="middle" x="229" y="-607.3" font-family="Times,serif" font-size="14.00">M2O</text>
</g>
<!-- teams.ValorantTeamPreset -->
<g id="node5" class="node">
<title>teams.ValorantTeamPreset</title>
<polygon fill="none" stroke="black" points="7.5,-531.5 7.5,-567.5 159.5,-567.5 159.5,-531.5 7.5,-531.5"/>
<text text-anchor="middle" x="83.5" y="-547" font-family="Times,serif" font-size="10.00">teams.ValorantTeamPreset</text>
</g>
<!-- teams.ValorantTeamPreset&#45;&gt;user_profile.UserProfile -->
<g id="edge4" class="edge">
<title>teams.ValorantTeamPreset&#45;&gt;user_profile.UserProfile</title>
<path fill="none" stroke="black" d="M159.82,-546.06C195.91,-541.76 238.65,-532.61 273,-513.5 279.07,-510.12 285.02,-506.38 290.84,-502.36"/>
<text text-anchor="middle" x="229" y="-560.3" font-family="Times,serif" font-size="14.00">profile</text>
<text text-anchor="middle" x="229" y="-545.3" font-family="Times,serif" font-size="14.00">M2O</text>
</g>
<!-- teams.Team -->
<g id="node6" class="node">
<title>teams.Team</title>
<polygon fill="none" stroke="black" points="44.5,-476.5 44.5,-512.5 122.5,-512.5 122.5,-476.5 44.5,-476.5"/>
<text text-anchor="middle" x="83.5" y="-492" font-family="Times,serif" font-size="10.00">teams.Team</text>
</g>
<!-- teams.Team&#45;&gt;user_profile.UserProfile -->
<g id="edge5" class="edge">
<title>teams.Team&#45;&gt;user_profile.UserProfile</title>
<path fill="none" stroke="black" d="M122.59,-490.66C161.58,-485.77 223.33,-475.32 273,-454.5 278.87,-452.04 284.76,-449.32 290.62,-446.41"/>
<text text-anchor="middle" x="229" y="-498.3" font-family="Times,serif" font-size="14.00">captain</text>
<text text-anchor="middle" x="229" y="-483.3" font-family="Times,serif" font-size="14.00">M2O</text>
</g>
<!-- teams.TeamMembership -->
<g id="node7" class="node">
<title>teams.TeamMembership</title>
<polygon fill="none" stroke="black" points="12,-421.5 12,-457.5 155,-457.5 155,-421.5 12,-421.5"/>
<text text-anchor="middle" x="83.5" y="-437" font-family="Times,serif" font-size="10.00">teams.TeamMembership</text>
</g>
<!-- teams.TeamMembership&#45;&gt;user_profile.UserProfile -->
<g id="edge6" class="edge">
<title>teams.TeamMembership&#45;&gt;user_profile.UserProfile</title>
<path fill="none" stroke="black" d="M155.04,-426.57C190.56,-419.74 234.21,-410.84 273,-401.5 278.85,-400.09 284.82,-398.61 290.85,-397.07"/>
<text text-anchor="middle" x="229" y="-439.3" font-family="Times,serif" font-size="14.00">profile</text>
<text text-anchor="middle" x="229" y="-424.3" font-family="Times,serif" font-size="14.00">M2O</text>
</g>
<!-- teams.TeamInvite -->
<g id="node8" class="node">
<title>teams.TeamInvite</title>
<polygon fill="none" stroke="black" points="30,-344.5 30,-380.5 137,-380.5 137,-344.5 30,-344.5"/>
<text text-anchor="middle" x="83.5" y="-360" font-family="Times,serif" font-size="10.00">teams.TeamInvite</text>
</g>
<!-- teams.TeamInvite&#45;&gt;user_profile.UserProfile -->
<g id="edge7" class="edge">
<title>teams.TeamInvite&#45;&gt;user_profile.UserProfile</title>
<path fill="none" stroke="black" d="M137.16,-365.61C152.57,-366.39 169.46,-367.11 185,-367.5 219.38,-368.35 256.7,-368.05 290.95,-367.27"/>
<text text-anchor="middle" x="229" y="-386.3" font-family="Times,serif" font-size="14.00">inviter</text>
<text text-anchor="middle" x="229" y="-371.3" font-family="Times,serif" font-size="14.00">M2O</text>
</g>
<!-- teams.TeamInvite&#45;&gt;user_profile.UserProfile -->
<g id="edge8" class="edge">
<title>teams.TeamInvite&#45;&gt;user_profile.UserProfile</title>
<path fill="none" stroke="black" d="M136.57,-344.47C151.97,-339.96 169,-335.76 185,-333.5 219.32,-328.65 256.62,-330.47 290.87,-334.98"/>
<text text-anchor="middle" x="229" y="-352.3" font-family="Times,serif" font-size="14.00">invited_user</text>
<text text-anchor="middle" x="229" y="-337.3" font-family="Times,serif" font-size="14.00">M2O</text>
</g>
<!-- tournaments.MatchDispute -->
<g id="node9" class="node">
<title>tournaments.MatchDispute</title>
<polygon fill="none" stroke="black" points="5,-266.5 5,-302.5 162,-302.5 162,-266.5 5,-266.5"/>
<text text-anchor="middle" x="83.5" y="-282" font-family="Times,serif" font-size="10.00">tournaments.MatchDispute</text>
</g>
<!-- tournaments.MatchDispute&#45;&gt;user_profile.UserProfile -->
<g id="edge9" class="edge">
<title>tournaments.MatchDispute&#45;&gt;user_profile.UserProfile</title>
<path fill="none" stroke="black" d="M162.12,-282.87C196.56,-283.81 237.29,-287.25 273,-296.5 278.95,-298.04 284.95,-299.84 290.95,-301.83"/>
<text text-anchor="middle" x="229" y="-315.3" font-family="Times,serif" font-size="14.00">opened_by</text>
<text text-anchor="middle" x="229" y="-300.3" font-family="Times,serif" font-size="14.00">M2O</text>
</g>
<!-- tournaments.MatchComment -->
<g id="node10" class="node">
<title>tournaments.MatchComment</title>
<polygon fill="none" stroke="black" points="0,-211.5 0,-247.5 167,-247.5 167,-211.5 0,-211.5"/>
<text text-anchor="middle" x="83.5" y="-227" font-family="Times,serif" font-size="10.00">tournaments.MatchComment</text>
</g>
<!-- tournaments.MatchComment&#45;&gt;user_profile.UserProfile -->
<g id="edge10" class="edge">
<title>tournaments.MatchComment&#45;&gt;user_profile.UserProfile</title>
<path fill="none" stroke="black" d="M167.29,-228.11C201.15,-230.11 240.03,-235.79 273,-249.5 279.03,-252.01 285.01,-254.87 290.9,-258"/>
<text text-anchor="middle" x="229" y="-268.3" font-family="Times,serif" font-size="14.00">author</text>
<text text-anchor="middle" x="229" y="-253.3" font-family="Times,serif" font-size="14.00">M2O</text>
</g>
<!-- tournaments.Match -->
<g id="node11" class="node">
<title>tournaments.Match</title>
<polygon fill="none" stroke="black" points="25,-106.5 25,-142.5 142,-142.5 142,-106.5 25,-106.5"/>
<text text-anchor="middle" x="83.5" y="-122" font-family="Times,serif" font-size="10.00">tournaments.Match</text>
</g>
<!-- tournaments.Match&#45;&gt;user_profile.UserProfile -->
<g id="edge11" class="edge">
<title>tournaments.Match&#45;&gt;user_profile.UserProfile</title>
<path fill="none" stroke="black" d="M141.83,-142.5C188.95,-157.95 251.35,-180.09 273,-195.5 278.99,-199.76 284.88,-204.35 290.64,-209.18"/>
<text text-anchor="middle" x="229" y="-214.3" font-family="Times,serif" font-size="14.00">user_a</text>
<text text-anchor="middle" x="229" y="-199.3" font-family="Times,serif" font-size="14.00">M2O</text>
</g>
<!-- tournaments.Match&#45;&gt;user_profile.UserProfile -->
<g id="edge12" class="edge">
<title>tournaments.Match&#45;&gt;user_profile.UserProfile</title>
<path fill="none" stroke="black" d="M142.36,-109.32C181.78,-102.31 233.73,-99.86 273,-122.5 297.72,-136.75 318.44,-157.26 335.69,-180.36"/>
<text text-anchor="middle" x="229" y="-141.3" font-family="Times,serif" font-size="14.00">user_b</text>
<text text-anchor="middle" x="229" y="-126.3" font-family="Times,serif" font-size="14.00">M2O</text>
</g>
<!-- tournaments.Match&#45;&gt;user_profile.UserProfile -->
<g id="edge13" class="edge">
<title>tournaments.Match&#45;&gt;user_profile.UserProfile</title>
<path fill="none" stroke="black" d="M107.66,-106.38C144.99,-79.52 219.7,-35.79 273,-69.5 313.8,-95.31 342.87,-136.7 363.48,-180.34"/>
<text text-anchor="middle" x="229" y="-88.3" font-family="Times,serif" font-size="14.00">winner_user</text>
<text text-anchor="middle" x="229" y="-73.3" font-family="Times,serif" font-size="14.00">M2O</text>
</g>
<!-- tournaments.Registration -->
<g id="node12" class="node">
<title>tournaments.Registration</title>
<polygon fill="none" stroke="black" points="10,-0.5 10,-36.5 157,-36.5 157,-0.5 10,-0.5"/>
<text text-anchor="middle" x="83.5" y="-16" font-family="Times,serif" font-size="10.00">tournaments.Registration</text>
</g>
<!-- tournaments.Registration&#45;&gt;user_profile.UserProfile -->
<g id="edge14" class="edge">
<title>tournaments.Registration&#45;&gt;user_profile.UserProfile</title>
<path fill="none" stroke="black" d="M157.4,-2.16C195,2.11 239.82,0.3 273,-22.5 326.22,-59.06 359.08,-119.89 379.37,-180.07"/>
<text text-anchor="middle" x="229" y="-41.3" font-family="Times,serif" font-size="14.00">user</text>
<text text-anchor="middle" x="229" y="-26.3" font-family="Times,serif" font-size="14.00">M2O</text>
</g>
</g>
</svg>
